<?xml version="1.0" encoding="utf-8" standalone="no"?>
<!DOCTYPE svg PUBLIC "-//W3C//DTD SVG 1.1//EN"
  "http://www.w3.org/Graphics/SVG/1.1/DTD/svg11.dtd">
<!-- Created with matplotlib (https://matplotlib.org/) -->
<svg height="936pt" version="1.1" viewBox="0 0 1440 936" width="1440pt" xmlns="http://www.w3.org/2000/svg" xmlns:xlink="http://www.w3.org/1999/xlink">
 <metadata>
  <rdf:RDF xmlns:cc="http://creativecommons.org/ns#" xmlns:dc="http://purl.org/dc/elements/1.1/" xmlns:rdf="http://www.w3.org/1999/02/22-rdf-syntax-ns#">
   <cc:Work>
    <dc:type rdf:resource="http://purl.org/dc/dcmitype/StillImage"/>
    <dc:date>2020-10-22T14:23:56.635576</dc:date>
    <dc:format>image/svg+xml</dc:format>
    <dc:creator>
     <cc:Agent>
      <dc:title>Matplotlib v3.3.1, https://matplotlib.org/</dc:title>
     </cc:Agent>
    </dc:creator>
   </cc:Work>
  </rdf:RDF>
 </metadata>
 <defs>
  <style type="text/css">*{stroke-linecap:butt;stroke-linejoin:round;}</style>
 </defs>
 <g id="figure_1">
  <g id="patch_1">
   <path d="M 0 936 
L 1440 936 
L 1440 0 
L 0 0 
z
" style="fill:none;"/>
  </g>
  <g id="axes_1">
   <g id="patch_2">
    <path d="M 180 433.538182 
L 1296 433.538182 
L 1296 112.32 
L 180 112.32 
z
" style="fill:#ffffff;"/>
   </g>
   <g id="patch_3">
    <path clip-path="url(#pe82cb46b95)" d="M 184.464 433.538182 
L 220.176 433.538182 
L 220.176 209.374662 
L 184.464 209.374662 
z
" style="fill:#5875a4;"/>
   </g>
   <g id="patch_4">
    <path clip-path="url(#pe82cb46b95)" d="M 229.104 433.538182 
L 264.816 433.538182 
L 264.816 355.080809 
L 229.104 355.080809 
z
" style="fill:#cc8963;"/>
   </g>
   <g id="patch_5">
    <path clip-path="url(#pe82cb46b95)" d="M 273.744 433.538182 
L 309.456 433.538182 
L 309.456 329.327835 
L 273.744 329.327835 
z
" style="fill:#5f9e6e;"/>
   </g>
   <g id="patch_6">
    <path clip-path="url(#pe82cb46b95)" d="M 318.384 433.538182 
L 354.096 433.538182 
L 354.096 366.18547 
L 318.384 366.18547 
z
" style="fill:#b55d60;"/>
   </g>
   <g id="patch_7">
    <path clip-path="url(#pe82cb46b95)" d="M 363.024 433.538182 
L 398.736 433.538182 
L 398.736 302.583127 
L 363.024 302.583127 
z
" style="fill:#857aab;"/>
   </g>
   <g id="patch_8">
    <path clip-path="url(#pe82cb46b95)" d="M 407.664 433.538182 
L 443.376 433.538182 
L 443.376 346.148362 
L 407.664 346.148362 
z
" style="fill:#8d7866;"/>
   </g>
   <g id="patch_9">
    <path clip-path="url(#pe82cb46b95)" d="M 452.304 433.538182 
L 488.016 433.538182 
L 488.016 273.20521 
L 452.304 273.20521 
z
" style="fill:#d095bf;"/>
   </g>
   <g id="patch_10">
    <path clip-path="url(#pe82cb46b95)" d="M 496.944 433.538182 
L 532.656 433.538182 
L 532.656 250.491433 
L 496.944 250.491433 
z
" style="fill:#8c8c8c;"/>
   </g>
   <g id="patch_11">
    <path clip-path="url(#pe82cb46b95)" d="M 541.584 433.538182 
L 577.296 433.538182 
L 577.296 331.335791 
L 541.584 331.335791 
z
" style="fill:#c1b37f;"/>
   </g>
   <g id="patch_12">
    <path clip-path="url(#pe82cb46b95)" d="M 586.224 433.538182 
L 621.936 433.538182 
L 621.936 369.545127 
L 586.224 369.545127 
z
" style="fill:#71aec0;"/>
   </g>
   <g id="patch_13">
    <path clip-path="url(#pe82cb46b95)" d="M 630.864 433.538182 
L 666.576 433.538182 
L 666.576 272.436407 
L 630.864 272.436407 
z
" style="fill:#5875a4;"/>
   </g>
   <g id="patch_14">
    <path clip-path="url(#pe82cb46b95)" d="M 675.504 433.538182 
L 711.216 433.538182 
L 711.216 311.876019 
L 675.504 311.876019 
z
" style="fill:#cc8963;"/>
   </g>
   <g id="patch_15">
    <path clip-path="url(#pe82cb46b95)" d="M 720.144 433.538182 
L 755.856 433.538182 
L 755.856 365.771828 
L 720.144 365.771828 
z
" style="fill:#5f9e6e;"/>
   </g>
   <g id="patch_16">
    <path clip-path="url(#pe82cb46b95)" d="M 764.784 433.538182 
L 800.496 433.538182 
L 800.496 298.272794 
L 764.784 298.272794 
z
" style="fill:#b55d60;"/>
   </g>
   <g id="patch_17">
    <path clip-path="url(#pe82cb46b95)" d="M 809.424 433.538182 
L 845.136 433.538182 
L 845.136 236.376957 
L 809.424 236.376957 
z
" style="fill:#857aab;"/>
   </g>
   <g id="patch_18">
    <path clip-path="url(#pe82cb46b95)" d="M 854.064 433.538182 
L 889.776 433.538182 
L 889.776 276.574449 
L 854.064 276.574449 
z
" style="fill:#8d7866;"/>
   </g>
   <g id="patch_19">
    <path clip-path="url(#pe82cb46b95)" d="M 898.704 433.538182 
L 934.416 433.538182 
L 934.416 287.532058 
L 898.704 287.532058 
z
" style="fill:#d095bf;"/>
   </g>
   <g id="patch_20">
    <path clip-path="url(#pe82cb46b95)" d="M 943.344 433.538182 
L 979.056 433.538182 
L 979.056 390.946572 
L 943.344 390.946572 
z
" style="fill:#8c8c8c;"/>
   </g>
   <g id="patch_21">
    <path clip-path="url(#pe82cb46b95)" d="M 987.984 433.538182 
L 1023.696 433.538182 
L 1023.696 238.596186 
L 987.984 238.596186 
z
" style="fill:#c1b37f;"/>
   </g>
   <g id="patch_22">
    <path clip-path="url(#pe82cb46b95)" d="M 1032.624 433.538182 
L 1068.336 433.538182 
L 1068.336 330.34397 
L 1032.624 330.34397 
z
" style="fill:#71aec0;"/>
   </g>
   <g id="patch_23">
    <path clip-path="url(#pe82cb46b95)" d="M 1077.264 433.538182 
L 1112.976 433.538182 
L 1112.976 127.616104 
L 1077.264 127.616104 
z
" style="fill:#5875a4;"/>
   </g>
   <g id="patch_24">
    <path clip-path="url(#pe82cb46b95)" d="M 1121.904 433.538182 
L 1157.616 433.538182 
L 1157.616 259.258946 
L 1121.904 259.258946 
z
" style="fill:#cc8963;"/>
   </g>
   <g id="patch_25">
    <path clip-path="url(#pe82cb46b95)" d="M 1166.544 433.538182 
L 1202.256 433.538182 
L 1202.256 150.44086 
L 1166.544 150.44086 
z
" style="fill:#5f9e6e;"/>
   </g>
   <g id="patch_26">
    <path clip-path="url(#pe82cb46b95)" d="M 1211.184 433.538182 
L 1246.896 433.538182 
L 1246.896 201.871442 
L 1211.184 201.871442 
z
" style="fill:#b55d60;"/>
   </g>
   <g id="patch_27">
    <path clip-path="url(#pe82cb46b95)" d="M 1255.824 433.538182 
L 1291.536 433.538182 
L 1291.536 360.29081 
L 1255.824 360.29081 
z
" style="fill:#857aab;"/>
   </g>
   <g id="matplotlib.axis_1">
    <g id="xtick_1">
     <g id="line2d_1">
      <defs>
       <path d="M 0 0 
L 0 3.5 
" id="ma587a10255" style="stroke:#000000;stroke-width:0.8;"/>
      </defs>
      <g>
       <use style="stroke:#000000;stroke-width:0.8;" x="202.32" xlink:href="#ma587a10255" y="433.538182"/>
      </g>
     </g>
     <g id="text_1">
      <!-- 강남구 -->
      <g transform="translate(187.32 448.130369)scale(0.1 -0.1)">
       <defs>
        <path d="M 80.078125 52.6875 
L 80.078125 31.390625 
L 72.796875 31.390625 
L 72.796875 85.40625 
L 80.078125 85.40625 
L 80.078125 59.515625 
L 94.28125 59.515625 
L 94.28125 52.6875 
z
M 54.890625 79.890625 
Q 53.078125 60.15625 39.859375 47.484375 
Q 26.65625 34.8125 12.40625 29.203125 
L 7.171875 35.109375 
Q 21.6875 39.703125 32.9375 50.390625 
Q 44.1875 61.078125 46.296875 73.390625 
L 12.984375 73.390625 
L 12.984375 79.890625 
z
M 50.984375 -7.078125 
Q 36.328125 -7.078125 28.21875 -2 
Q 20.125 3.078125 20.125 11.1875 
Q 20.125 19.234375 28.171875 24.3125 
Q 36.234375 29.390625 50.984375 29.390625 
Q 65.875 29.390625 73.921875 24.328125 
Q 81.984375 19.28125 81.984375 11.1875 
Q 81.984375 3.078125 73.84375 -2 
Q 65.71875 -7.078125 50.984375 -7.078125 
z
M 50.984375 23.09375 
Q 39.984375 23.09375 33.875 19.765625 
Q 27.78125 16.453125 27.78125 11.1875 
Q 27.78125 5.90625 33.78125 2.5625 
Q 39.796875 -0.78125 50.984375 -0.78125 
Q 62.203125 -0.78125 68.203125 2.5625 
Q 74.21875 5.90625 74.21875 11.1875 
Q 74.21875 16.453125 68.109375 19.765625 
Q 62.015625 23.09375 50.984375 23.09375 
z
" id="MalgunGothic-44053"/>
        <path d="M 80.078125 55.90625 
L 80.078125 33.109375 
L 72.796875 33.109375 
L 72.796875 85.40625 
L 80.078125 85.40625 
L 80.078125 62.5 
L 94.28125 62.5 
L 94.28125 55.90625 
z
M 66.609375 44.28125 
Q 58.453125 42.09375 14.3125 42.09375 
L 14.3125 81.59375 
L 21.578125 81.59375 
L 21.578125 48.578125 
L 28.03125 48.578125 
Q 55.515625 48.578125 65.71875 50.59375 
z
M 22.90625 -6.59375 
L 22.90625 27.875 
L 80.078125 27.875 
L 80.078125 -6.59375 
z
M 72.90625 21.390625 
L 30.078125 21.390625 
L 30.078125 -0.09375 
L 72.90625 -0.09375 
z
" id="MalgunGothic-45224"/>
        <path d="M 45.515625 -8.796875 
L 45.515625 34.8125 
L 6.296875 34.8125 
L 6.296875 41.40625 
L 71.78125 41.40625 
Q 72.90625 52.984375 72.90625 74.8125 
L 20.515625 74.8125 
L 20.515625 81.296875 
L 80.171875 81.296875 
Q 80.171875 57.125 78.8125 41.40625 
L 93.703125 41.40625 
L 93.703125 34.8125 
L 52.78125 34.8125 
L 52.78125 -8.796875 
z
" id="MalgunGothic-44396"/>
       </defs>
       <use xlink:href="#MalgunGothic-44053"/>
       <use x="100" xlink:href="#MalgunGothic-45224"/>
       <use x="200" xlink:href="#MalgunGothic-44396"/>
      </g>
     </g>
    </g>
    <g id="xtick_2">
     <g id="line2d_2">
      <g>
       <use style="stroke:#000000;stroke-width:0.8;" x="246.96" xlink:href="#ma587a10255" y="433.538182"/>
      </g>
     </g>
     <g id="text_2">
      <!-- 강동구 -->
      <g transform="translate(231.96 448.130369)scale(0.1 -0.1)">
       <defs>
        <path d="M 6.296875 33.109375 
L 6.296875 39.59375 
L 46.296875 39.59375 
L 46.296875 51.8125 
L 20.90625 51.8125 
L 20.90625 83.203125 
L 79.390625 83.203125 
L 79.390625 76.703125 
L 28.328125 76.703125 
L 28.328125 58.296875 
L 80.515625 58.296875 
L 80.515625 51.8125 
L 53.71875 51.8125 
L 53.71875 39.59375 
L 93.703125 39.59375 
L 93.703125 33.109375 
z
M 50 -8.015625 
Q 35.109375 -8.015625 27.1875 -3.296875 
Q 19.28125 1.421875 19.28125 9.421875 
Q 19.28125 17.4375 27.21875 22.125 
Q 35.15625 26.8125 50 26.8125 
Q 64.84375 26.8125 72.78125 22.125 
Q 80.71875 17.4375 80.71875 9.421875 
Q 80.71875 1.421875 72.796875 -3.296875 
Q 64.890625 -8.015625 50 -8.015625 
z
M 50 20.609375 
Q 38.71875 20.609375 32.859375 17.59375 
Q 27 14.59375 27 9.421875 
Q 27 4.25 32.875 1.21875 
Q 38.765625 -1.8125 50 -1.8125 
Q 61.234375 -1.8125 67.109375 1.21875 
Q 73 4.25 73 9.421875 
Q 73 14.59375 67.109375 17.59375 
Q 61.234375 20.609375 50 20.609375 
z
" id="MalgunGothic-46041"/>
       </defs>
       <use xlink:href="#MalgunGothic-44053"/>
       <use x="100" xlink:href="#MalgunGothic-46041"/>
       <use x="200" xlink:href="#MalgunGothic-44396"/>
      </g>
     </g>
    </g>
    <g id="xtick_3">
     <g id="line2d_3">
      <g>
       <use style="stroke:#000000;stroke-width:0.8;" x="291.6" xlink:href="#ma587a10255" y="433.538182"/>
      </g>
     </g>
     <g id="text_3">
      <!-- 강북구 -->
      <g transform="translate(276.6 448.130369)scale(0.1 -0.1)">
       <defs>
        <path d="M 20.90625 49.609375 
L 20.90625 83.890625 
L 28.21875 83.890625 
L 28.21875 72.515625 
L 71.78125 72.515625 
L 71.78125 83.890625 
L 79 83.890625 
L 79 49.609375 
z
M 71.78125 66.015625 
L 28.21875 66.015625 
L 28.21875 56 
L 71.78125 56 
z
M 72.21875 -8.796875 
L 72.21875 15.828125 
L 18.890625 15.828125 
L 18.890625 22.3125 
L 46.296875 22.3125 
L 46.296875 33.59375 
L 6.296875 33.59375 
L 6.296875 40.1875 
L 93.703125 40.1875 
L 93.703125 33.59375 
L 53.71875 33.59375 
L 53.71875 22.3125 
L 79.5 22.3125 
L 79.5 -8.796875 
z
" id="MalgunGothic-48513"/>
       </defs>
       <use xlink:href="#MalgunGothic-44053"/>
       <use x="100" xlink:href="#MalgunGothic-48513"/>
       <use x="200" xlink:href="#MalgunGothic-44396"/>
      </g>
     </g>
    </g>
    <g id="xtick_4">
     <g id="line2d_4">
      <g>
       <use style="stroke:#000000;stroke-width:0.8;" x="336.24" xlink:href="#ma587a10255" y="433.538182"/>
      </g>
     </g>
     <g id="text_4">
      <!-- 강서구 -->
      <g transform="translate(321.24 448.130369)scale(0.1 -0.1)">
       <defs>
        <path d="M 77.296875 -8.796875 
L 77.296875 48 
L 55.328125 48 
L 55.328125 54.5 
L 77.296875 54.5 
L 77.296875 85.40625 
L 84.625 85.40625 
L 84.625 -8.796875 
z
M 58.984375 15.09375 
Q 51.078125 21.140625 44.15625 30.296875 
Q 37.25 39.453125 35.40625 46.09375 
Q 33.15625 38.484375 26.46875 29.25 
Q 19.78125 20.015625 11.921875 13.921875 
L 6.296875 18.796875 
Q 17.921875 26.609375 24.796875 38.734375 
Q 31.6875 50.875 31.6875 63.484375 
L 31.6875 78.90625 
L 38.921875 78.90625 
L 38.921875 63.8125 
Q 38.921875 51.609375 45.734375 39.9375 
Q 52.546875 28.265625 64.109375 20.796875 
z
" id="MalgunGothic-49436"/>
       </defs>
       <use xlink:href="#MalgunGothic-44053"/>
       <use x="100" xlink:href="#MalgunGothic-49436"/>
       <use x="200" xlink:href="#MalgunGothic-44396"/>
      </g>
     </g>
    </g>
    <g id="xtick_5">
     <g id="line2d_5">
      <g>
       <use style="stroke:#000000;stroke-width:0.8;" x="380.88" xlink:href="#ma587a10255" y="433.538182"/>
      </g>
     </g>
     <g id="text_5">
      <!-- 관악구 -->
      <g transform="translate(365.88 448.130369)scale(0.1 -0.1)">
       <defs>
        <path d="M 81.109375 44 
L 81.109375 15.1875 
L 73.78125 15.1875 
L 73.78125 85.40625 
L 81.109375 85.40625 
L 81.109375 50.59375 
L 95.21875 50.59375 
L 95.21875 44 
z
M 60.5 79 
Q 60.5 59.8125 58.984375 46.09375 
L 51.90625 46.578125 
Q 53.21875 59.71875 53.21875 72.515625 
L 13.625 72.515625 
L 13.625 79 
z
M 66.890625 32.328125 
Q 60.296875 31.78125 39.078125 31.25 
Q 17.875 30.71875 6.390625 30.71875 
L 5.71875 37.203125 
Q 18.21875 37.203125 28.90625 37.5 
L 28.90625 58.40625 
L 36.1875 58.40625 
L 36.1875 37.59375 
Q 54.390625 37.84375 66.5 38.625 
z
M 22.3125 -5.609375 
L 22.3125 21.578125 
L 29.59375 21.578125 
L 29.59375 0.875 
L 83.59375 0.875 
L 83.59375 -5.609375 
z
" id="MalgunGothic-44288"/>
        <path d="M 80.078125 53.71875 
L 80.078125 32.8125 
L 72.796875 32.8125 
L 72.796875 85.40625 
L 80.078125 85.40625 
L 80.078125 60.296875 
L 94.28125 60.296875 
L 94.28125 53.71875 
z
M 33.59375 37.40625 
Q 23.09375 37.40625 16.40625 43.875 
Q 9.71875 50.34375 9.71875 60.109375 
Q 9.71875 69.828125 16.359375 76.265625 
Q 23 82.71875 33.59375 82.71875 
Q 44.1875 82.71875 50.90625 76.296875 
Q 57.625 69.875 57.625 60.109375 
Q 57.625 50.25 50.875 43.828125 
Q 44.140625 37.40625 33.59375 37.40625 
z
M 33.59375 76.515625 
Q 26.21875 76.515625 21.609375 71.890625 
Q 17 67.28125 17 60.109375 
Q 17 52.828125 21.578125 48.265625 
Q 26.171875 43.703125 33.59375 43.703125 
Q 41.0625 43.703125 45.671875 48.28125 
Q 50.296875 52.875 50.296875 60.109375 
Q 50.296875 67.1875 45.671875 71.84375 
Q 41.0625 76.515625 33.59375 76.515625 
z
M 72.796875 -8.796875 
L 72.796875 21.09375 
L 19.671875 21.09375 
L 19.671875 27.59375 
L 80.078125 27.59375 
L 80.078125 -8.796875 
z
" id="MalgunGothic-50501"/>
       </defs>
       <use xlink:href="#MalgunGothic-44288"/>
       <use x="100" xlink:href="#MalgunGothic-50501"/>
       <use x="200" xlink:href="#MalgunGothic-44396"/>
      </g>
     </g>
    </g>
    <g id="xtick_6">
     <g id="line2d_6">
      <g>
       <use style="stroke:#000000;stroke-width:0.8;" x="425.52" xlink:href="#ma587a10255" y="433.538182"/>
      </g>
     </g>
     <g id="text_6">
      <!-- 광진구 -->
      <g transform="translate(410.52 448.130369)scale(0.1 -0.1)">
       <defs>
        <path d="M 81.109375 50.09375 
L 81.109375 28.125 
L 73.78125 28.125 
L 73.78125 85.40625 
L 81.109375 85.40625 
L 81.109375 56.59375 
L 95.3125 56.59375 
L 95.3125 50.09375 
z
M 60.5 81.296875 
Q 60.5 62.703125 59.078125 49.609375 
L 52 50.203125 
Q 53.21875 62.15625 53.21875 74.8125 
L 14.3125 74.8125 
L 14.3125 81.296875 
z
M 66.890625 36.921875 
Q 60.296875 36.375 39.078125 35.828125 
Q 17.875 35.296875 6.390625 35.296875 
L 5.71875 41.796875 
L 28.8125 42 
L 28.8125 60.984375 
L 36.078125 60.984375 
L 36.078125 42.1875 
Q 57.859375 42.53125 66.5 43.21875 
z
M 50.390625 -7.515625 
Q 35.40625 -7.515625 27.296875 -2.703125 
Q 19.1875 2.09375 19.1875 10.015625 
Q 19.1875 17.875 27.296875 22.671875 
Q 35.40625 27.484375 50.390625 27.484375 
Q 65.28125 27.484375 73.390625 22.703125 
Q 81.5 17.921875 81.5 10.015625 
Q 81.5 2.046875 73.390625 -2.734375 
Q 65.28125 -7.515625 50.390625 -7.515625 
z
M 50.390625 21.1875 
Q 38.96875 21.1875 32.984375 18.15625 
Q 27 15.140625 27 10.015625 
Q 27 4.890625 33.046875 1.828125 
Q 39.109375 -1.21875 50.390625 -1.21875 
Q 61.625 -1.21875 67.703125 1.796875 
Q 73.78125 4.828125 73.78125 10.015625 
Q 73.78125 15.140625 67.796875 18.15625 
Q 61.8125 21.1875 50.390625 21.1875 
z
" id="MalgunGothic-44305"/>
        <path d="M 76.703125 18.40625 
L 76.703125 85.40625 
L 83.984375 85.40625 
L 83.984375 18.40625 
z
M 60.296875 32.328125 
Q 53.46875 36.46875 46.921875 43.296875 
Q 40.375 50.140625 37.796875 55.71875 
Q 35.109375 49.265625 28.21875 41.453125 
Q 21.34375 33.640625 14.703125 29.890625 
L 9.515625 34.90625 
Q 19.78125 40.140625 26.875 50.09375 
Q 33.984375 60.0625 33.984375 70.21875 
L 33.984375 73.6875 
L 12.59375 73.6875 
L 12.59375 80.328125 
L 62.203125 80.328125 
L 62.203125 73.6875 
L 41.109375 73.6875 
L 41.109375 70.21875 
Q 41.109375 60.890625 48.53125 51.40625 
Q 55.953125 41.9375 65.1875 37.59375 
z
M 25.984375 -5.71875 
L 25.984375 25.09375 
L 33.296875 25.09375 
L 33.296875 0.6875 
L 86.53125 0.6875 
L 86.53125 -5.71875 
z
" id="MalgunGothic-51652"/>
       </defs>
       <use xlink:href="#MalgunGothic-44305"/>
       <use x="100" xlink:href="#MalgunGothic-51652"/>
       <use x="200" xlink:href="#MalgunGothic-44396"/>
      </g>
     </g>
    </g>
    <g id="xtick_7">
     <g id="line2d_7">
      <g>
       <use style="stroke:#000000;stroke-width:0.8;" x="470.16" xlink:href="#ma587a10255" y="433.538182"/>
      </g>
     </g>
     <g id="text_7">
      <!-- 구로구 -->
      <g transform="translate(455.16 448.130369)scale(0.1 -0.1)">
       <defs>
        <path d="M 19.484375 56.890625 
L 72.796875 56.890625 
L 72.796875 70.796875 
L 19.671875 70.796875 
L 19.671875 77.203125 
L 80.078125 77.203125 
L 80.078125 50.59375 
L 26.90625 50.59375 
L 26.90625 35.015625 
L 82.8125 35.015625 
L 82.8125 28.515625 
L 53.71875 28.515625 
L 53.71875 11.375 
L 93.703125 11.375 
L 93.703125 4.890625 
L 6.296875 4.890625 
L 6.296875 11.375 
L 46.390625 11.375 
L 46.390625 28.515625 
L 19.484375 28.515625 
z
" id="MalgunGothic-47196"/>
       </defs>
       <use xlink:href="#MalgunGothic-44396"/>
       <use x="100" xlink:href="#MalgunGothic-47196"/>
       <use x="200" xlink:href="#MalgunGothic-44396"/>
      </g>
     </g>
    </g>
    <g id="xtick_8">
     <g id="line2d_8">
      <g>
       <use style="stroke:#000000;stroke-width:0.8;" x="514.8" xlink:href="#ma587a10255" y="433.538182"/>
      </g>
     </g>
     <g id="text_8">
      <!-- 금천구 -->
      <g transform="translate(499.8 448.130369)scale(0.1 -0.1)">
       <defs>
        <path d="M 6.296875 41.609375 
L 6.296875 48.1875 
L 71.296875 48.1875 
Q 72.40625 59.421875 72.40625 75.296875 
L 20.90625 75.296875 
L 20.90625 81.78125 
L 79.6875 81.78125 
Q 79.6875 63.765625 78.421875 48.1875 
L 93.703125 48.1875 
L 93.703125 41.609375 
z
M 21.09375 -6.5 
L 21.09375 29 
L 79.296875 29 
L 79.296875 -6.5 
z
M 72.125 22.609375 
L 28.328125 22.609375 
L 28.328125 0 
L 72.125 0 
z
" id="MalgunGothic-44552"/>
        <path d="M 76.3125 16.5 
L 76.3125 51.21875 
L 55.328125 51.21875 
L 55.328125 57.71875 
L 76.3125 57.71875 
L 76.3125 85.40625 
L 83.59375 85.40625 
L 83.59375 16.5 
z
M 58.6875 29.390625 
Q 51.65625 32.671875 45.1875 38.59375 
Q 38.71875 44.53125 35.890625 50 
Q 32.953125 43.703125 26.34375 37.1875 
Q 19.734375 30.671875 12.984375 27.296875 
L 7.625 32.90625 
Q 17.1875 36.234375 24.625 44.9375 
Q 32.078125 53.65625 32.078125 61.1875 
L 32.078125 67.921875 
L 10.59375 67.921875 
L 10.59375 74.421875 
L 32.171875 74.421875 
L 32.171875 85.296875 
L 39.5 85.296875 
L 39.5 74.421875 
L 60.890625 74.421875 
L 60.890625 67.921875 
L 39.5 67.921875 
L 39.5 61.28125 
Q 39.5 54 46.96875 46.0625 
Q 54.4375 38.140625 63.625 35.40625 
z
M 25.59375 -5.71875 
L 25.59375 24.703125 
L 33.015625 24.703125 
L 33.015625 0.6875 
L 86.078125 0.6875 
L 86.078125 -5.71875 
z
" id="MalgunGothic-52380"/>
       </defs>
       <use xlink:href="#MalgunGothic-44552"/>
       <use x="100" xlink:href="#MalgunGothic-52380"/>
       <use x="200" xlink:href="#MalgunGothic-44396"/>
      </g>
     </g>
    </g>
    <g id="xtick_9">
     <g id="line2d_9">
      <g>
       <use style="stroke:#000000;stroke-width:0.8;" x="559.44" xlink:href="#ma587a10255" y="433.538182"/>
      </g>
     </g>
     <g id="text_9">
      <!-- 노원구 -->
      <g transform="translate(544.44 448.130369)scale(0.1 -0.1)">
       <defs>
        <path d="M 20.015625 77.09375 
L 27.296875 77.09375 
L 27.296875 44.28125 
L 81.890625 44.28125 
L 81.890625 37.703125 
L 53.71875 37.703125 
L 53.71875 12.984375 
L 93.703125 12.984375 
L 93.703125 6.390625 
L 6.296875 6.390625 
L 6.296875 12.984375 
L 46.296875 12.984375 
L 46.296875 37.703125 
L 20.015625 37.703125 
z
" id="MalgunGothic-45432"/>
        <path d="M 77.78125 10.890625 
L 77.78125 21 
L 57.171875 21 
L 57.171875 27.484375 
L 77.78125 27.484375 
L 77.78125 85.40625 
L 85.203125 85.40625 
L 85.203125 10.890625 
z
M 41.015625 47.796875 
Q 30.71875 47.796875 24.1875 52.96875 
Q 17.671875 58.15625 17.671875 65.828125 
Q 17.671875 73.390625 24.140625 78.53125 
Q 30.609375 83.6875 41.015625 83.6875 
Q 51.375 83.6875 57.84375 78.578125 
Q 64.3125 73.484375 64.3125 65.828125 
Q 64.3125 58.109375 57.8125 52.953125 
Q 51.3125 47.796875 41.015625 47.796875 
z
M 41.015625 77.484375 
Q 33.796875 77.484375 29.390625 73.96875 
Q 25 70.453125 25 65.828125 
Q 25 61.078125 29.390625 57.53125 
Q 33.796875 54 41.015625 54 
Q 48.25 54 52.65625 57.53125 
Q 57.078125 61.078125 57.078125 65.828125 
Q 57.078125 70.453125 52.65625 73.96875 
Q 48.25 77.484375 41.015625 77.484375 
z
M 71.1875 35.796875 
Q 64.0625 35.296875 45.015625 34.515625 
L 45.015625 14.203125 
L 37.796875 14.203125 
L 37.796875 34.1875 
Q 18.890625 33.5 10.015625 33.5 
L 8.984375 40.28125 
Q 44.578125 40.28125 70.703125 42.09375 
z
M 23.578125 -6.296875 
L 23.578125 21.921875 
L 30.90625 21.921875 
L 30.90625 0.203125 
L 87.5 0.203125 
L 87.5 -6.296875 
z
" id="MalgunGothic-50896"/>
       </defs>
       <use xlink:href="#MalgunGothic-45432"/>
       <use x="100" xlink:href="#MalgunGothic-50896"/>
       <use x="200" xlink:href="#MalgunGothic-44396"/>
      </g>
     </g>
    </g>
    <g id="xtick_10">
     <g id="line2d_10">
      <g>
       <use style="stroke:#000000;stroke-width:0.8;" x="604.08" xlink:href="#ma587a10255" y="433.538182"/>
      </g>
     </g>
     <g id="text_10">
      <!-- 도봉구 -->
      <g transform="translate(589.08 448.130369)scale(0.1 -0.1)">
       <defs>
        <path d="M 6.296875 5.8125 
L 6.296875 12.3125 
L 46.296875 12.3125 
L 46.296875 34.078125 
L 21.09375 34.078125 
L 21.09375 76.515625 
L 78.90625 76.515625 
L 78.90625 70.015625 
L 28.421875 70.015625 
L 28.421875 40.625 
L 80.421875 40.625 
L 80.421875 34.078125 
L 53.71875 34.078125 
L 53.71875 12.3125 
L 93.703125 12.3125 
L 93.703125 5.8125 
z
" id="MalgunGothic-46020"/>
        <path d="M 6.296875 32.8125 
L 6.296875 39.40625 
L 46.296875 39.40625 
L 46.296875 49.515625 
L 21.1875 49.515625 
L 21.1875 84.078125 
L 28.421875 84.078125 
L 28.421875 72.796875 
L 71.578125 72.796875 
L 71.578125 84.078125 
L 78.8125 84.078125 
L 78.8125 49.515625 
L 53.71875 49.515625 
L 53.71875 39.40625 
L 93.703125 39.40625 
L 93.703125 32.8125 
z
M 71.578125 66.40625 
L 28.421875 66.40625 
L 28.421875 55.90625 
L 71.578125 55.90625 
z
M 50 -8.296875 
Q 35.25 -8.296875 27.53125 -3.796875 
Q 19.828125 0.6875 19.828125 8.796875 
Q 19.828125 16.796875 27.484375 21.28125 
Q 35.15625 25.78125 50 25.78125 
Q 64.84375 25.78125 72.5 21.28125 
Q 80.171875 16.796875 80.171875 8.796875 
Q 80.171875 0.6875 72.453125 -3.796875 
Q 64.75 -8.296875 50 -8.296875 
z
M 50 19.578125 
Q 27.390625 19.578125 27.390625 8.796875 
Q 27.390625 -2.09375 50 -2.09375 
Q 72.609375 -2.09375 72.609375 8.796875 
Q 72.609375 19.578125 50 19.578125 
z
" id="MalgunGothic-48393"/>
       </defs>
       <use xlink:href="#MalgunGothic-46020"/>
       <use x="100" xlink:href="#MalgunGothic-48393"/>
       <use x="200" xlink:href="#MalgunGothic-44396"/>
      </g>
     </g>
    </g>
    <g id="xtick_11">
     <g id="line2d_11">
      <g>
       <use style="stroke:#000000;stroke-width:0.8;" x="648.72" xlink:href="#ma587a10255" y="433.538182"/>
      </g>
     </g>
     <g id="text_11">
      <!-- 동대문구 -->
      <g transform="translate(628.72 448.130369)scale(0.1 -0.1)">
       <defs>
        <path d="M 79.203125 -8.796875 
L 79.203125 40.1875 
L 67.09375 40.1875 
L 67.09375 -5.90625 
L 59.90625 -5.90625 
L 59.90625 83.5 
L 67.09375 83.5 
L 67.09375 46.6875 
L 79.203125 46.6875 
L 79.203125 85.40625 
L 86.53125 85.40625 
L 86.53125 -8.796875 
z
M 52.984375 18.015625 
Q 39.3125 16.609375 12.890625 16.609375 
L 12.890625 77.09375 
L 49.03125 77.09375 
L 49.03125 70.609375 
L 20.125 70.609375 
L 20.125 23.09375 
L 28.8125 23.09375 
Q 43.609375 23.09375 52.484375 24.21875 
z
" id="MalgunGothic-45824"/>
        <path d="M 21 48.390625 
L 21 81.984375 
L 79 81.984375 
L 79 48.390625 
z
M 71.78125 75.484375 
L 28.21875 75.484375 
L 28.21875 54.78125 
L 71.78125 54.78125 
z
M 47.015625 11.625 
L 47.015625 31 
L 6.296875 31 
L 6.296875 37.5 
L 93.703125 37.5 
L 93.703125 31 
L 54.203125 31 
L 54.203125 11.625 
z
M 20.125 -5.8125 
L 20.125 22.40625 
L 27.390625 22.40625 
L 27.390625 0.6875 
L 81.296875 0.6875 
L 81.296875 -5.8125 
z
" id="MalgunGothic-47928"/>
       </defs>
       <use xlink:href="#MalgunGothic-46041"/>
       <use x="100" xlink:href="#MalgunGothic-45824"/>
       <use x="200" xlink:href="#MalgunGothic-47928"/>
       <use x="300" xlink:href="#MalgunGothic-44396"/>
      </g>
     </g>
    </g>
    <g id="xtick_12">
     <g id="line2d_12">
      <g>
       <use style="stroke:#000000;stroke-width:0.8;" x="693.36" xlink:href="#ma587a10255" y="433.538182"/>
      </g>
     </g>
     <g id="text_12">
      <!-- 동작구 -->
      <g transform="translate(678.36 448.130369)scale(0.1 -0.1)">
       <defs>
        <path d="M 80.078125 52.984375 
L 80.078125 30.90625 
L 72.796875 30.90625 
L 72.796875 85.40625 
L 80.078125 85.40625 
L 80.078125 59.625 
L 94.28125 59.625 
L 94.28125 52.984375 
z
M 56.109375 36.625 
Q 40.4375 45.171875 34.1875 58.015625 
Q 31.59375 52 25.1875 45.140625 
Q 18.796875 38.28125 11.71875 34.28125 
L 6.5 39.203125 
Q 17.140625 44.53125 23.828125 53.421875 
Q 30.515625 62.3125 30.515625 71.921875 
L 30.515625 74.703125 
L 9.71875 74.703125 
L 9.71875 81.203125 
L 58.296875 81.203125 
L 58.296875 74.703125 
L 37.5 74.703125 
L 37.5 71.921875 
Q 37.5 62.59375 44.3125 54.4375 
Q 51.125 46.296875 61.078125 42.09375 
z
M 72.796875 -8.796875 
L 72.796875 19.09375 
L 19.671875 19.09375 
L 19.671875 25.6875 
L 80.078125 25.6875 
L 80.078125 -8.796875 
z
" id="MalgunGothic-51089"/>
       </defs>
       <use xlink:href="#MalgunGothic-46041"/>
       <use x="100" xlink:href="#MalgunGothic-51089"/>
       <use x="200" xlink:href="#MalgunGothic-44396"/>
      </g>
     </g>
    </g>
    <g id="xtick_13">
     <g id="line2d_13">
      <g>
       <use style="stroke:#000000;stroke-width:0.8;" x="738" xlink:href="#ma587a10255" y="433.538182"/>
      </g>
     </g>
     <g id="text_13">
      <!-- 마포구 -->
      <g transform="translate(723 448.130369)scale(0.1 -0.1)">
       <defs>
        <path d="M 79.59375 41.109375 
L 79.59375 -8.796875 
L 72.3125 -8.796875 
L 72.3125 85.40625 
L 79.59375 85.40625 
L 79.59375 47.609375 
L 95.90625 47.609375 
L 95.90625 41.109375 
z
M 12.5 18.890625 
L 12.5 77.09375 
L 56.984375 77.09375 
L 56.984375 18.890625 
z
M 49.8125 70.703125 
L 19.828125 70.703125 
L 19.828125 25.296875 
L 49.8125 25.296875 
z
" id="MalgunGothic-47560"/>
        <path d="M 15.578125 76.515625 
L 84.421875 76.515625 
L 84.421875 70.125 
L 15.578125 70.125 
z
M 70.21875 38.71875 
L 85.59375 38.71875 
L 85.59375 32.171875 
L 53.71875 32.171875 
L 53.71875 11.8125 
L 93.703125 11.8125 
L 93.703125 5.328125 
L 6.296875 5.328125 
L 6.296875 11.8125 
L 46.296875 11.8125 
L 46.296875 32.171875 
L 14.40625 32.171875 
L 14.40625 38.71875 
L 29.78125 38.71875 
L 28.609375 65.1875 
L 35.796875 65.1875 
L 37.109375 38.71875 
L 62.890625 38.71875 
L 64.203125 65.1875 
L 71.390625 65.1875 
z
" id="MalgunGothic-54252"/>
       </defs>
       <use xlink:href="#MalgunGothic-47560"/>
       <use x="100" xlink:href="#MalgunGothic-54252"/>
       <use x="200" xlink:href="#MalgunGothic-44396"/>
      </g>
     </g>
    </g>
    <g id="xtick_14">
     <g id="line2d_14">
      <g>
       <use style="stroke:#000000;stroke-width:0.8;" x="782.64" xlink:href="#ma587a10255" y="433.538182"/>
      </g>
     </g>
     <g id="text_14">
      <!-- 서대문구 -->
      <g transform="translate(762.64 448.130369)scale(0.1 -0.1)">
       <use xlink:href="#MalgunGothic-49436"/>
       <use x="100" xlink:href="#MalgunGothic-45824"/>
       <use x="200" xlink:href="#MalgunGothic-47928"/>
       <use x="300" xlink:href="#MalgunGothic-44396"/>
      </g>
     </g>
    </g>
    <g id="xtick_15">
     <g id="line2d_15">
      <g>
       <use style="stroke:#000000;stroke-width:0.8;" x="827.28" xlink:href="#ma587a10255" y="433.538182"/>
      </g>
     </g>
     <g id="text_15">
      <!-- 서초구 -->
      <g transform="translate(812.28 448.130369)scale(0.1 -0.1)">
       <defs>
        <path d="M 53.71875 66.5 
Q 54.34375 57.8125 64.6875 49.828125 
Q 75.046875 41.84375 89.59375 39.40625 
L 84.90625 33.015625 
Q 74.359375 35.59375 64.109375 42.3125 
Q 53.859375 49.03125 49.90625 55.90625 
Q 45.609375 48.78125 36.03125 42.328125 
Q 26.46875 35.890625 15.578125 32.90625 
L 10.5 39.203125 
Q 24.21875 41.21875 34.828125 49.46875 
Q 45.453125 57.71875 46.1875 66.5 
L 16.015625 66.5 
L 16.015625 73 
L 46.390625 73 
L 46.390625 83.6875 
L 53.8125 83.6875 
L 53.8125 73 
L 83.984375 73 
L 83.984375 66.5 
z
M 6.296875 6.109375 
L 6.296875 12.59375 
L 46.1875 12.59375 
L 46.1875 34.515625 
L 53.609375 34.515625 
L 53.609375 12.59375 
L 93.703125 12.59375 
L 93.703125 6.109375 
z
" id="MalgunGothic-52488"/>
       </defs>
       <use xlink:href="#MalgunGothic-49436"/>
       <use x="100" xlink:href="#MalgunGothic-52488"/>
       <use x="200" xlink:href="#MalgunGothic-44396"/>
      </g>
     </g>
    </g>
    <g id="xtick_16">
     <g id="line2d_16">
      <g>
       <use style="stroke:#000000;stroke-width:0.8;" x="871.92" xlink:href="#ma587a10255" y="433.538182"/>
      </g>
     </g>
     <g id="text_16">
      <!-- 성동구 -->
      <g transform="translate(856.92 448.130369)scale(0.1 -0.1)">
       <defs>
        <path d="M 77.296875 31 
L 77.296875 59.078125 
L 55.328125 59.078125 
L 55.328125 65.625 
L 77.296875 65.625 
L 77.296875 85.40625 
L 84.625 85.40625 
L 84.625 31 
z
M 57.078125 36.375 
Q 50.6875 39.84375 44.234375 46.09375 
Q 37.796875 52.34375 35.203125 57.8125 
Q 32.421875 51.609375 25.921875 44.65625 
Q 19.4375 37.703125 12.796875 33.984375 
L 7.625 39.015625 
Q 17.71875 43.84375 24.546875 53.015625 
Q 31.390625 62.203125 31.390625 72.3125 
L 31.390625 82.328125 
L 38.484375 82.328125 
L 38.484375 72.3125 
Q 38.484375 62.890625 45.5625 54.25 
Q 52.640625 45.609375 62.015625 41.703125 
z
M 55.71875 -7.421875 
Q 40.96875 -7.421875 32.9375 -2.3125 
Q 24.90625 2.78125 24.90625 10.890625 
Q 24.90625 19 32.90625 24.046875 
Q 40.921875 29.109375 55.71875 29.109375 
Q 70.515625 29.109375 78.515625 24.046875 
Q 86.53125 19 86.53125 10.890625 
Q 86.53125 2.78125 78.484375 -2.3125 
Q 70.453125 -7.421875 55.71875 -7.421875 
z
M 55.71875 22.90625 
Q 44.53125 22.90625 38.625 19.5 
Q 32.71875 16.109375 32.71875 10.890625 
Q 32.71875 5.609375 38.640625 2.234375 
Q 44.578125 -1.125 55.71875 -1.125 
Q 66.796875 -1.125 72.75 2.21875 
Q 78.71875 5.5625 78.71875 10.890625 
Q 78.71875 16.15625 72.796875 19.53125 
Q 66.890625 22.90625 55.71875 22.90625 
z
" id="MalgunGothic-49457"/>
       </defs>
       <use xlink:href="#MalgunGothic-49457"/>
       <use x="100" xlink:href="#MalgunGothic-46041"/>
       <use x="200" xlink:href="#MalgunGothic-44396"/>
      </g>
     </g>
    </g>
    <g id="xtick_17">
     <g id="line2d_17">
      <g>
       <use style="stroke:#000000;stroke-width:0.8;" x="916.56" xlink:href="#ma587a10255" y="433.538182"/>
      </g>
     </g>
     <g id="text_17">
      <!-- 성북구 -->
      <g transform="translate(901.56 448.130369)scale(0.1 -0.1)">
       <use xlink:href="#MalgunGothic-49457"/>
       <use x="100" xlink:href="#MalgunGothic-48513"/>
       <use x="200" xlink:href="#MalgunGothic-44396"/>
      </g>
     </g>
    </g>
    <g id="xtick_18">
     <g id="line2d_18">
      <g>
       <use style="stroke:#000000;stroke-width:0.8;" x="961.2" xlink:href="#ma587a10255" y="433.538182"/>
      </g>
     </g>
     <g id="text_18">
      <!-- 송파구 -->
      <g transform="translate(946.2 448.130369)scale(0.1 -0.1)">
       <defs>
        <path d="M 85.296875 51.609375 
Q 73.96875 53.265625 64 58.921875 
Q 54.046875 64.59375 50.09375 70.796875 
Q 46.4375 65.046875 36.296875 59.15625 
Q 26.171875 53.265625 15.1875 51.703125 
L 10.890625 57.625 
Q 25.78125 58.890625 36.078125 66.203125 
Q 46.390625 73.53125 46.390625 80.515625 
L 46.390625 83.296875 
L 53.609375 83.296875 
L 53.609375 80.515625 
Q 53.609375 73.390625 63.90625 66.03125 
Q 74.21875 58.6875 89.109375 57.515625 
z
M 6.296875 34.90625 
L 6.296875 41.5 
L 46.296875 41.5 
L 46.296875 55.328125 
L 53.71875 55.328125 
L 53.71875 41.5 
L 93.703125 41.5 
L 93.703125 34.90625 
z
M 50 -7.8125 
Q 35.359375 -7.8125 27.59375 -3.125 
Q 19.828125 1.5625 19.828125 9.8125 
Q 19.828125 17.875 27.609375 22.53125 
Q 35.40625 27.203125 50 27.203125 
Q 64.59375 27.203125 72.375 22.53125 
Q 80.171875 17.875 80.171875 9.8125 
Q 80.171875 1.5625 72.40625 -3.125 
Q 64.65625 -7.8125 50 -7.8125 
z
M 50 21 
Q 38.765625 21 33.078125 18.046875 
Q 27.390625 15.09375 27.390625 9.8125 
Q 27.390625 4.4375 33.171875 1.40625 
Q 38.96875 -1.609375 50 -1.609375 
Q 60.984375 -1.609375 66.796875 1.40625 
Q 72.609375 4.4375 72.609375 9.8125 
Q 72.609375 15.09375 66.890625 18.046875 
Q 61.1875 21 50 21 
z
" id="MalgunGothic-49569"/>
        <path d="M 80.328125 41.609375 
L 80.171875 -8.796875 
L 72.90625 -8.796875 
L 72.90625 85.40625 
L 80.328125 85.40625 
L 80.328125 48.09375 
L 96.09375 48.09375 
L 96.09375 41.609375 
z
M 8.40625 70.796875 
L 8.40625 77.203125 
L 62.5 77.203125 
L 62.5 70.796875 
z
M 67.578125 17.828125 
Q 60.59375 16.40625 52.390625 16.40625 
L 4.984375 16.40625 
L 4.984375 22.90625 
L 19.578125 22.90625 
L 18.703125 63.921875 
L 25.875 63.921875 
L 26.90625 22.90625 
L 44.1875 22.90625 
L 45.125 63.921875 
L 52.296875 63.921875 
L 51.3125 22.90625 
Q 62.5 22.90625 66.890625 24.03125 
z
" id="MalgunGothic-54028"/>
       </defs>
       <use xlink:href="#MalgunGothic-49569"/>
       <use x="100" xlink:href="#MalgunGothic-54028"/>
       <use x="200" xlink:href="#MalgunGothic-44396"/>
      </g>
     </g>
    </g>
    <g id="xtick_19">
     <g id="line2d_19">
      <g>
       <use style="stroke:#000000;stroke-width:0.8;" x="1005.84" xlink:href="#ma587a10255" y="433.538182"/>
      </g>
     </g>
     <g id="text_19">
      <!-- 양천구 -->
      <g transform="translate(990.84 448.130369)scale(0.1 -0.1)">
       <defs>
        <path d="M 80.078125 43.890625 
L 80.078125 31 
L 72.796875 31 
L 72.796875 85.40625 
L 80.078125 85.40625 
L 80.078125 71.390625 
L 94.28125 71.390625 
L 94.28125 64.984375 
L 80.078125 64.984375 
L 80.078125 50.296875 
L 94.28125 50.296875 
L 94.28125 43.890625 
z
M 33.59375 37.5 
Q 23.046875 37.5 16.375 43.921875 
Q 9.71875 50.34375 9.71875 60.109375 
Q 9.71875 69.828125 16.328125 76.21875 
Q 22.953125 82.625 33.59375 82.625 
Q 44.234375 82.625 50.921875 76.25 
Q 57.625 69.875 57.625 60.109375 
Q 57.625 50.25 50.90625 43.875 
Q 44.1875 37.5 33.59375 37.5 
z
M 33.59375 76.421875 
Q 26.171875 76.421875 21.578125 71.84375 
Q 17 67.28125 17 60.109375 
Q 17 52.828125 21.578125 48.265625 
Q 26.171875 43.703125 33.59375 43.703125 
Q 41.0625 43.703125 45.671875 48.28125 
Q 50.296875 52.875 50.296875 60.109375 
Q 50.296875 67.1875 45.671875 71.796875 
Q 41.0625 76.421875 33.59375 76.421875 
z
M 51.125 -7.71875 
Q 36.46875 -7.71875 28.625 -2.65625 
Q 20.796875 2.390625 20.796875 10.984375 
Q 20.796875 19.53125 28.609375 24.5625 
Q 36.421875 29.59375 51.125 29.59375 
Q 65.96875 29.59375 73.734375 24.5625 
Q 81.5 19.53125 81.5 10.984375 
Q 81.5 2.4375 73.703125 -2.640625 
Q 65.921875 -7.71875 51.125 -7.71875 
z
M 51.125 23.390625 
Q 40.140625 23.390625 34.375 20.046875 
Q 28.609375 16.703125 28.609375 10.984375 
Q 28.609375 5.21875 34.34375 1.84375 
Q 40.09375 -1.515625 51.125 -1.515625 
Q 62.203125 -1.515625 67.984375 1.875 
Q 73.78125 5.28125 73.78125 10.984375 
Q 73.78125 16.65625 67.96875 20.015625 
Q 62.15625 23.390625 51.125 23.390625 
z
" id="MalgunGothic-50577"/>
       </defs>
       <use xlink:href="#MalgunGothic-50577"/>
       <use x="100" xlink:href="#MalgunGothic-52380"/>
       <use x="200" xlink:href="#MalgunGothic-44396"/>
      </g>
     </g>
    </g>
    <g id="xtick_20">
     <g id="line2d_20">
      <g>
       <use style="stroke:#000000;stroke-width:0.8;" x="1050.48" xlink:href="#ma587a10255" y="433.538182"/>
      </g>
     </g>
     <g id="text_20">
      <!-- 영등포구 -->
      <g transform="translate(1030.48 448.130369)scale(0.1 -0.1)">
       <defs>
        <path d="M 57.328125 44 
Q 50.140625 35.109375 37.59375 35.109375 
Q 27.046875 35.109375 20.0625 41.8125 
Q 13.09375 48.53125 13.09375 59.078125 
Q 13.09375 69.671875 20.0625 76.484375 
Q 27.046875 83.296875 37.59375 83.296875 
Q 50.484375 83.296875 57.71875 73.78125 
L 77.484375 73.78125 
L 77.484375 85.40625 
L 84.8125 85.40625 
L 84.8125 29.890625 
L 77.484375 29.890625 
L 77.484375 44 
z
M 37.59375 76.90625 
Q 29.984375 76.90625 25.140625 71.96875 
Q 20.3125 67.046875 20.3125 59.078125 
Q 20.3125 51.171875 25.140625 46.328125 
Q 29.984375 41.5 37.59375 41.5 
Q 45.21875 41.5 50.09375 46.265625 
Q 54.984375 51.03125 54.984375 59.078125 
Q 54.984375 67.1875 50.09375 72.046875 
Q 45.21875 76.90625 37.59375 76.90625 
z
M 60.796875 50.390625 
L 77.484375 50.390625 
L 77.484375 67.390625 
L 60.984375 67.390625 
Q 62.3125 63.53125 62.3125 59.078125 
Q 62.3125 54.9375 60.796875 50.390625 
z
M 56.5 -7.90625 
Q 41.703125 -7.90625 33.6875 -2.84375 
Q 25.6875 2.203125 25.6875 10.296875 
Q 25.6875 18.40625 33.6875 23.453125 
Q 41.703125 28.515625 56.5 28.515625 
Q 71.296875 28.515625 79.296875 23.4375 
Q 87.3125 18.359375 87.3125 10.296875 
Q 87.3125 2.25 79.296875 -2.828125 
Q 71.296875 -7.90625 56.5 -7.90625 
z
M 56.5 22.3125 
Q 45.453125 22.3125 39.421875 18.96875 
Q 33.40625 15.625 33.40625 10.296875 
Q 33.40625 4.984375 39.421875 1.640625 
Q 45.453125 -1.703125 56.5 -1.703125 
Q 67.578125 -1.703125 73.53125 1.640625 
Q 79.5 4.984375 79.5 10.296875 
Q 79.5 15.625 73.53125 18.96875 
Q 67.578125 22.3125 56.5 22.3125 
z
" id="MalgunGothic-50689"/>
        <path d="M 21 50.984375 
L 21 82.71875 
L 79.109375 82.71875 
L 79.109375 76.21875 
L 28.328125 76.21875 
L 28.328125 57.515625 
L 80.078125 57.515625 
L 80.078125 50.984375 
z
M 6.296875 34.28125 
L 6.296875 40.828125 
L 93.703125 40.828125 
L 93.703125 34.28125 
z
M 50 -8.015625 
Q 35.203125 -8.015625 27.234375 -3.421875 
Q 19.28125 1.171875 19.28125 9.1875 
Q 19.28125 17.1875 27.21875 21.796875 
Q 35.15625 26.421875 50 26.421875 
Q 64.84375 26.421875 72.78125 21.796875 
Q 80.71875 17.1875 80.71875 9.1875 
Q 80.71875 1.171875 72.75 -3.421875 
Q 64.796875 -8.015625 50 -8.015625 
z
M 50 20.21875 
Q 38.53125 20.21875 32.765625 17.234375 
Q 27 14.265625 27 9.1875 
Q 27 4.109375 32.78125 1.140625 
Q 38.578125 -1.8125 50 -1.8125 
Q 61.421875 -1.8125 67.203125 1.140625 
Q 73 4.109375 73 9.1875 
Q 73 14.265625 67.234375 17.234375 
Q 61.46875 20.21875 50 20.21875 
z
" id="MalgunGothic-46321"/>
       </defs>
       <use xlink:href="#MalgunGothic-50689"/>
       <use x="100" xlink:href="#MalgunGothic-46321"/>
       <use x="200" xlink:href="#MalgunGothic-54252"/>
       <use x="300" xlink:href="#MalgunGothic-44396"/>
      </g>
     </g>
    </g>
    <g id="xtick_21">
     <g id="line2d_21">
      <g>
       <use style="stroke:#000000;stroke-width:0.8;" x="1095.12" xlink:href="#ma587a10255" y="433.538182"/>
      </g>
     </g>
     <g id="text_21">
      <!-- 용산구 -->
      <g transform="translate(1080.12 448.130369)scale(0.1 -0.1)">
       <defs>
        <path d="M 29.6875 52.78125 
Q 20.125 57.46875 20.125 66.703125 
Q 20.125 75.046875 27.875 79.609375 
Q 35.640625 84.1875 50 84.1875 
Q 64.359375 84.1875 72.125 79.609375 
Q 79.890625 75.046875 79.890625 66.703125 
Q 79.890625 57.328125 70.21875 52.78125 
L 70.21875 39.40625 
L 93.703125 39.40625 
L 93.703125 32.90625 
L 6.296875 32.90625 
L 6.296875 39.40625 
L 29.6875 39.40625 
z
M 50 77.984375 
Q 27.6875 77.984375 27.6875 66.703125 
Q 27.6875 61.375 33.21875 58.390625 
Q 38.765625 55.421875 50 55.421875 
Q 61.234375 55.421875 66.765625 58.390625 
Q 72.3125 61.375 72.3125 66.703125 
Q 72.3125 77.984375 50 77.984375 
z
M 37.015625 39.40625 
L 62.890625 39.40625 
L 62.890625 50.390625 
Q 57.46875 49.21875 50 49.21875 
Q 43.0625 49.21875 37.015625 50.484375 
z
M 50 -8.296875 
Q 35.296875 -8.296875 27.5625 -3.65625 
Q 19.828125 0.984375 19.828125 9.078125 
Q 19.828125 17.28125 27.609375 21.9375 
Q 35.40625 26.609375 50 26.609375 
Q 64.59375 26.609375 72.375 21.9375 
Q 80.171875 17.28125 80.171875 9.078125 
Q 80.171875 0.984375 72.4375 -3.65625 
Q 64.703125 -8.296875 50 -8.296875 
z
M 50 20.40625 
Q 38.8125 20.40625 33.09375 17.375 
Q 27.390625 14.359375 27.390625 9.078125 
Q 27.390625 3.8125 33.078125 0.859375 
Q 38.765625 -2.09375 50 -2.09375 
Q 61.1875 -2.09375 66.890625 0.859375 
Q 72.609375 3.8125 72.609375 9.078125 
Q 72.609375 14.40625 66.875 17.40625 
Q 61.140625 20.40625 50 20.40625 
z
" id="MalgunGothic-50857"/>
        <path d="M 80.078125 49.515625 
L 80.078125 16.890625 
L 72.796875 16.890625 
L 72.796875 85.40625 
L 80.078125 85.40625 
L 80.078125 56 
L 94.28125 56 
L 94.28125 49.515625 
z
M 56.203125 32.515625 
Q 50.09375 35.84375 43.40625 42.671875 
Q 36.71875 49.515625 34.1875 55.078125 
Q 31.84375 48.828125 25.046875 41.28125 
Q 18.265625 33.734375 11.71875 30.078125 
L 6.390625 35.109375 
Q 16.265625 39.890625 23.3125 49.578125 
Q 30.375 59.28125 30.515625 69.578125 
L 30.515625 81.6875 
L 37.5 81.6875 
L 37.5 69.578125 
Q 37.5 60.015625 44.578125 50.921875 
Q 51.65625 41.84375 61.078125 37.796875 
z
M 23.09375 -5.515625 
L 23.09375 23.875 
L 30.515625 23.875 
L 30.515625 1.125 
L 83.203125 1.125 
L 83.203125 -5.515625 
z
" id="MalgunGothic-49328"/>
       </defs>
       <use xlink:href="#MalgunGothic-50857"/>
       <use x="100" xlink:href="#MalgunGothic-49328"/>
       <use x="200" xlink:href="#MalgunGothic-44396"/>
      </g>
     </g>
    </g>
    <g id="xtick_22">
     <g id="line2d_22">
      <g>
       <use style="stroke:#000000;stroke-width:0.8;" x="1139.76" xlink:href="#ma587a10255" y="433.538182"/>
      </g>
     </g>
     <g id="text_22">
      <!-- 은평구 -->
      <g transform="translate(1124.76 448.130369)scale(0.1 -0.1)">
       <defs>
        <path d="M 50 46.09375 
Q 36.078125 46.09375 28.390625 51.359375 
Q 20.703125 56.640625 20.703125 64.984375 
Q 20.703125 73.34375 28.359375 78.5625 
Q 36.03125 83.796875 50 83.796875 
Q 63.96875 83.796875 71.671875 78.5625 
Q 79.390625 73.34375 79.390625 64.984375 
Q 79.390625 56.640625 71.625 51.359375 
Q 63.875 46.09375 50 46.09375 
z
M 50 77.59375 
Q 39.703125 77.59375 34.015625 74.171875 
Q 28.328125 70.75 28.328125 64.984375 
Q 28.328125 59.234375 34.015625 55.8125 
Q 39.703125 52.390625 50 52.390625 
Q 60.296875 52.390625 65.984375 55.8125 
Q 71.6875 59.234375 71.6875 64.984375 
Q 71.6875 70.75 65.984375 74.171875 
Q 60.296875 77.59375 50 77.59375 
z
M 6.296875 29.984375 
L 6.296875 36.625 
L 93.703125 36.625 
L 93.703125 29.984375 
z
M 20.90625 -5.609375 
L 20.90625 20.796875 
L 28.328125 20.796875 
L 28.328125 0.875 
L 81.296875 0.875 
L 81.296875 -5.609375 
z
" id="MalgunGothic-51008"/>
        <path d="M 60.6875 46.78125 
L 60.6875 52.984375 
L 77.296875 52.984375 
L 77.296875 62.015625 
L 60.6875 62.015625 
L 60.6875 68.21875 
L 77.296875 68.21875 
L 77.296875 85.40625 
L 84.625 85.40625 
L 84.625 29.390625 
L 77.296875 29.390625 
L 77.296875 46.78125 
z
M 12.40625 74.21875 
L 12.40625 80.609375 
L 63.375 80.609375 
L 63.375 74.21875 
z
M 67.28125 35.109375 
Q 61.140625 33.890625 50.484375 33.890625 
L 10.109375 33.890625 
L 10.109375 40.28125 
L 22.90625 40.28125 
L 21.78125 69.921875 
L 28.90625 69.921875 
L 29.78125 40.28125 
L 45.3125 40.28125 
L 46.1875 69.921875 
L 53.328125 69.921875 
L 52.09375 40.375 
Q 60.890625 40.375 66.796875 41.40625 
z
M 55.421875 -8.40625 
Q 40.53125 -8.40625 32.515625 -3.546875 
Q 24.515625 1.3125 24.515625 9.28125 
Q 24.515625 17.1875 32.4375 22.046875 
Q 40.375 26.90625 55.421875 26.90625 
Q 70.40625 26.90625 78.390625 22.046875 
Q 86.375 17.1875 86.375 9.28125 
Q 86.375 1.3125 78.3125 -3.546875 
Q 70.265625 -8.40625 55.421875 -8.40625 
z
M 55.421875 20.703125 
Q 44.28125 20.703125 38.296875 17.625 
Q 32.328125 14.546875 32.328125 9.28125 
Q 32.328125 4.046875 38.328125 0.96875 
Q 44.34375 -2.09375 55.421875 -2.09375 
Q 66.5 -2.09375 72.609375 0.96875 
Q 78.71875 4.046875 78.71875 9.28125 
Q 78.71875 14.546875 72.625 17.625 
Q 66.546875 20.703125 55.421875 20.703125 
z
" id="MalgunGothic-54217"/>
       </defs>
       <use xlink:href="#MalgunGothic-51008"/>
       <use x="100" xlink:href="#MalgunGothic-54217"/>
       <use x="200" xlink:href="#MalgunGothic-44396"/>
      </g>
     </g>
    </g>
    <g id="xtick_23">
     <g id="line2d_23">
      <g>
       <use style="stroke:#000000;stroke-width:0.8;" x="1184.4" xlink:href="#ma587a10255" y="433.538182"/>
      </g>
     </g>
     <g id="text_23">
      <!-- 종로구 -->
      <g transform="translate(1169.4 448.130369)scale(0.1 -0.1)">
       <defs>
        <path d="M 85.296875 51.125 
Q 73.6875 52.984375 63.75 58.15625 
Q 53.8125 63.328125 50.09375 68.890625 
Q 46.578125 63.921875 36.765625 58.59375 
Q 26.953125 53.265625 15.1875 51.21875 
L 10.890625 57.078125 
Q 23.09375 58.015625 33.421875 63.796875 
Q 43.75 69.578125 46.09375 76.21875 
L 16.015625 76.21875 
L 16.015625 82.8125 
L 83.984375 82.8125 
L 83.984375 76.21875 
L 54 76.21875 
Q 56.203125 69.625 66.421875 63.90625 
Q 76.65625 58.203125 89.109375 57.078125 
z
M 6.296875 34.421875 
L 6.296875 41.015625 
L 46.296875 41.015625 
L 46.296875 54.78125 
L 53.71875 54.78125 
L 53.71875 41.015625 
L 93.703125 41.015625 
L 93.703125 34.421875 
z
M 50 -7.8125 
Q 35.359375 -7.8125 27.59375 -3.125 
Q 19.828125 1.5625 19.828125 9.8125 
Q 19.828125 17.875 27.609375 22.53125 
Q 35.40625 27.203125 50 27.203125 
Q 64.59375 27.203125 72.375 22.53125 
Q 80.171875 17.875 80.171875 9.8125 
Q 80.171875 1.5625 72.40625 -3.125 
Q 64.65625 -7.8125 50 -7.8125 
z
M 50 21 
Q 38.765625 21 33.078125 18.046875 
Q 27.390625 15.09375 27.390625 9.8125 
Q 27.390625 4.4375 33.171875 1.40625 
Q 38.96875 -1.609375 50 -1.609375 
Q 60.984375 -1.609375 66.796875 1.40625 
Q 72.609375 4.4375 72.609375 9.8125 
Q 72.609375 15.09375 66.890625 18.046875 
Q 61.1875 21 50 21 
z
" id="MalgunGothic-51333"/>
       </defs>
       <use xlink:href="#MalgunGothic-51333"/>
       <use x="100" xlink:href="#MalgunGothic-47196"/>
       <use x="200" xlink:href="#MalgunGothic-44396"/>
      </g>
     </g>
    </g>
    <g id="xtick_24">
     <g id="line2d_24">
      <g>
       <use style="stroke:#000000;stroke-width:0.8;" x="1229.04" xlink:href="#ma587a10255" y="433.538182"/>
      </g>
     </g>
     <g id="text_24">
      <!-- 중구 -->
      <g transform="translate(1219.04 448.130369)scale(0.1 -0.1)">
       <defs>
        <path d="M 85.296875 51.125 
Q 74.21875 52.6875 64.015625 58.03125 
Q 53.8125 63.375 50.09375 69.09375 
Q 46.625 63.96875 36.375 58.375 
Q 26.125 52.78125 15.1875 51.21875 
L 10.890625 57.078125 
Q 23.09375 58.015625 33.421875 63.796875 
Q 43.75 69.578125 46.09375 76.21875 
L 16.015625 76.21875 
L 16.015625 82.8125 
L 83.984375 82.8125 
L 83.984375 76.21875 
L 54 76.21875 
Q 56.203125 69.625 66.421875 63.90625 
Q 76.65625 58.203125 89.109375 57.078125 
z
M 46.296875 27.09375 
L 46.296875 37.984375 
L 6.296875 37.984375 
L 6.296875 44.578125 
L 93.703125 44.578125 
L 93.703125 37.984375 
L 53.71875 37.984375 
L 53.71875 27.09375 
Q 66.703125 26.515625 73.4375 21.875 
Q 80.171875 17.234375 80.171875 9.8125 
Q 80.171875 1.5625 72.40625 -3.125 
Q 64.65625 -7.8125 50 -7.8125 
Q 35.359375 -7.8125 27.59375 -3.125 
Q 19.828125 1.5625 19.828125 9.8125 
Q 19.828125 17.234375 26.5625 21.875 
Q 33.296875 26.515625 46.296875 27.09375 
z
M 50 21 
Q 38.765625 21 33.078125 18.046875 
Q 27.390625 15.09375 27.390625 9.8125 
Q 27.390625 4.4375 33.171875 1.40625 
Q 38.96875 -1.609375 50 -1.609375 
Q 60.984375 -1.609375 66.796875 1.40625 
Q 72.609375 4.4375 72.609375 9.8125 
Q 72.609375 15.09375 66.890625 18.046875 
Q 61.1875 21 50 21 
z
" id="MalgunGothic-51473"/>
       </defs>
       <use xlink:href="#MalgunGothic-51473"/>
       <use x="100" xlink:href="#MalgunGothic-44396"/>
      </g>
     </g>
    </g>
    <g id="xtick_25">
     <g id="line2d_25">
      <g>
       <use style="stroke:#000000;stroke-width:0.8;" x="1273.68" xlink:href="#ma587a10255" y="433.538182"/>
      </g>
     </g>
     <g id="text_25">
      <!-- 중랑구 -->
      <g transform="translate(1258.68 448.130369)scale(0.1 -0.1)">
       <defs>
        <path d="M 80.078125 53.90625 
L 80.078125 30.21875 
L 72.796875 30.21875 
L 72.796875 85.40625 
L 80.078125 85.40625 
L 80.078125 60.40625 
L 94.28125 60.40625 
L 94.28125 53.90625 
z
M 63.71875 36.71875 
Q 56.0625 35.453125 48.171875 35.171875 
Q 40.28125 34.90625 12.890625 34.90625 
L 12.890625 62.203125 
L 47.703125 62.203125 
L 47.703125 74.90625 
L 12.890625 74.90625 
L 12.890625 81.296875 
L 54.984375 81.296875 
L 54.984375 55.90625 
L 20.21875 55.90625 
L 20.21875 41.3125 
Q 42.828125 41.3125 49.96875 41.59375 
Q 57.125 41.890625 62.5 42.921875 
z
M 50.984375 -7.515625 
Q 36.03125 -7.515625 28.171875 -2.875 
Q 20.3125 1.765625 20.3125 9.625 
Q 20.3125 17.53125 28.25 22.171875 
Q 36.1875 26.8125 50.984375 26.8125 
Q 65.765625 26.8125 73.71875 22.21875 
Q 81.6875 17.625 81.6875 9.625 
Q 81.6875 1.65625 73.828125 -2.921875 
Q 65.96875 -7.515625 50.984375 -7.515625 
z
M 50.984375 20.609375 
Q 39.796875 20.609375 33.9375 17.71875 
Q 28.078125 14.84375 28.078125 9.625 
Q 28.078125 4.34375 33.984375 1.515625 
Q 39.890625 -1.3125 50.984375 -1.3125 
Q 62.203125 -1.3125 68.109375 1.53125 
Q 74.03125 4.390625 74.03125 9.625 
Q 74.03125 14.796875 68.171875 17.703125 
Q 62.3125 20.609375 50.984375 20.609375 
z
" id="MalgunGothic-46993"/>
       </defs>
       <use xlink:href="#MalgunGothic-51473"/>
       <use x="100" xlink:href="#MalgunGothic-46993"/>
       <use x="200" xlink:href="#MalgunGothic-44396"/>
      </g>
     </g>
    </g>
   </g>
   <g id="matplotlib.axis_2">
    <g id="ytick_1">
     <g id="line2d_26">
      <defs>
       <path d="M 0 0 
L -3.5 0 
" id="m4adc671441" style="stroke:#000000;stroke-width:0.8;"/>
      </defs>
      <g>
       <use style="stroke:#000000;stroke-width:0.8;" x="180" xlink:href="#m4adc671441" y="433.538182"/>
      </g>
     </g>
     <g id="text_26">
      <!-- 0.0 -->
      <g transform="translate(159.796875 437.334276)scale(0.1 -0.1)">
       <defs>
        <path d="M 4.34375 34.46875 
Q 4.34375 53.515625 10.546875 63.28125 
Q 16.75 73.046875 28.421875 73.046875 
Q 50.828125 73.046875 50.828125 36.234375 
Q 50.828125 18.0625 44.59375 8.421875 
Q 38.375 -1.21875 26.8125 -1.21875 
Q 15.875 -1.21875 10.109375 8.125 
Q 4.34375 17.484375 4.34375 34.46875 
z
M 12.25 34.859375 
Q 12.25 5.375 27.640625 5.375 
Q 42.921875 5.375 42.921875 35.296875 
Q 42.921875 66.40625 28.03125 66.40625 
Q 12.25 66.40625 12.25 34.859375 
z
" id="MalgunGothic-48"/>
        <path d="M 5.5625 4.296875 
Q 5.5625 6.59375 7.171875 8.171875 
Q 8.796875 9.765625 10.9375 9.765625 
Q 13.09375 9.765625 14.703125 8.171875 
Q 16.3125 6.59375 16.3125 4.296875 
Q 16.3125 2.15625 14.71875 0.515625 
Q 13.140625 -1.125 10.9375 -1.125 
Q 8.734375 -1.125 7.140625 0.453125 
Q 5.5625 2.046875 5.5625 4.296875 
z
" id="MalgunGothic-46"/>
       </defs>
       <use xlink:href="#MalgunGothic-48"/>
       <use x="55.078125" xlink:href="#MalgunGothic-46"/>
       <use x="76.953125" xlink:href="#MalgunGothic-48"/>
      </g>
     </g>
    </g>
    <g id="ytick_2">
     <g id="line2d_27">
      <g>
       <use style="stroke:#000000;stroke-width:0.8;" x="180" xlink:href="#m4adc671441" y="387.53628"/>
      </g>
     </g>
     <g id="text_27">
      <!-- 0.1 -->
      <g transform="translate(159.796875 391.332373)scale(0.1 -0.1)">
       <defs>
        <path d="M 34.859375 0 
L 27.09375 0 
L 27.09375 62.0625 
Q 24.859375 59.8125 19.78125 57.203125 
Q 14.703125 54.59375 10.5 53.5625 
L 10.5 61.859375 
Q 15.875 63.375 22.015625 66.796875 
Q 28.171875 70.21875 31.734375 73.4375 
L 34.859375 73.4375 
z
" id="MalgunGothic-49"/>
       </defs>
       <use xlink:href="#MalgunGothic-48"/>
       <use x="55.078125" xlink:href="#MalgunGothic-46"/>
       <use x="76.953125" xlink:href="#MalgunGothic-49"/>
      </g>
     </g>
    </g>
    <g id="ytick_3">
     <g id="line2d_28">
      <g>
       <use style="stroke:#000000;stroke-width:0.8;" x="180" xlink:href="#m4adc671441" y="341.534377"/>
      </g>
     </g>
     <g id="text_28">
      <!-- 0.2 -->
      <g transform="translate(159.796875 345.330471)scale(0.1 -0.1)">
       <defs>
        <path d="M 39.359375 52.6875 
Q 39.359375 59.125 35.546875 62.78125 
Q 31.734375 66.453125 25.4375 66.453125 
Q 20.953125 66.453125 16.453125 64.125 
Q 11.96875 61.8125 8.34375 57.765625 
L 8.34375 66.15625 
Q 15.328125 73.046875 26.421875 73.046875 
Q 35.640625 73.046875 41.28125 67.71875 
Q 46.921875 62.40625 46.921875 53.375 
Q 46.921875 45.609375 43.3125 39.765625 
Q 39.703125 33.9375 31 27.734375 
Q 22.796875 21.96875 19.59375 18.984375 
Q 16.40625 16.015625 15.109375 13.34375 
Q 13.8125 10.6875 13.8125 7.03125 
L 48.6875 7.03125 
L 48.6875 0 
L 5.5625 0 
L 5.5625 3.515625 
Q 5.5625 9.421875 7.203125 13.59375 
Q 8.84375 17.78125 12.671875 21.75 
Q 16.5 25.734375 24.953125 31.59375 
Q 32.671875 36.921875 36.015625 41.71875 
Q 39.359375 46.53125 39.359375 52.6875 
z
" id="MalgunGothic-50"/>
       </defs>
       <use xlink:href="#MalgunGothic-48"/>
       <use x="55.078125" xlink:href="#MalgunGothic-46"/>
       <use x="76.953125" xlink:href="#MalgunGothic-50"/>
      </g>
     </g>
    </g>
    <g id="ytick_4">
     <g id="line2d_29">
      <g>
       <use style="stroke:#000000;stroke-width:0.8;" x="180" xlink:href="#m4adc671441" y="295.532475"/>
      </g>
     </g>
     <g id="text_29">
      <!-- 0.3 -->
      <g transform="translate(159.796875 299.328569)scale(0.1 -0.1)">
       <defs>
        <path d="M 6.5 11.234375 
Q 13.921875 5.375 23.09375 5.375 
Q 30.609375 5.375 35.21875 9.171875 
Q 39.84375 12.984375 39.84375 19.484375 
Q 39.84375 33.890625 19.578125 33.890625 
L 13.625 33.890625 
L 13.625 40.484375 
L 19.28125 40.484375 
Q 37.3125 40.484375 37.3125 53.953125 
Q 37.3125 66.40625 23.578125 66.40625 
Q 15.96875 66.40625 9.28125 61.1875 
L 9.28125 68.953125 
Q 16.109375 73.046875 25.53125 73.046875 
Q 34.125 73.046875 39.671875 68.3125 
Q 45.21875 63.578125 45.21875 55.953125 
Q 45.21875 41.84375 30.8125 37.640625 
L 30.8125 37.5 
Q 38.578125 36.8125 43.1875 32.078125 
Q 47.796875 27.34375 47.796875 20.3125 
Q 47.796875 10.5 40.6875 4.640625 
Q 33.59375 -1.21875 22.65625 -1.21875 
Q 12.59375 -1.21875 6.5 2.640625 
z
" id="MalgunGothic-51"/>
       </defs>
       <use xlink:href="#MalgunGothic-48"/>
       <use x="55.078125" xlink:href="#MalgunGothic-46"/>
       <use x="76.953125" xlink:href="#MalgunGothic-51"/>
      </g>
     </g>
    </g>
    <g id="ytick_5">
     <g id="line2d_30">
      <g>
       <use style="stroke:#000000;stroke-width:0.8;" x="180" xlink:href="#m4adc671441" y="249.530573"/>
      </g>
     </g>
     <g id="text_30">
      <!-- 0.4 -->
      <g transform="translate(159.796875 253.326667)scale(0.1 -0.1)">
       <defs>
        <path d="M 42.234375 71.875 
L 42.234375 24.421875 
L 51.703125 24.421875 
L 51.703125 17.390625 
L 42.234375 17.390625 
L 42.234375 0 
L 34.578125 0 
L 34.578125 17.390625 
L 0.78125 17.390625 
L 0.78125 23.96875 
Q 11.375 35.890625 20.234375 48.578125 
Q 29.109375 61.28125 33.9375 71.875 
z
M 9.765625 24.421875 
L 34.578125 24.421875 
L 34.578125 59.859375 
Q 25.203125 43.5625 14.984375 30.953125 
z
" id="MalgunGothic-52"/>
       </defs>
       <use xlink:href="#MalgunGothic-48"/>
       <use x="55.078125" xlink:href="#MalgunGothic-46"/>
       <use x="76.953125" xlink:href="#MalgunGothic-52"/>
      </g>
     </g>
    </g>
    <g id="ytick_6">
     <g id="line2d_31">
      <g>
       <use style="stroke:#000000;stroke-width:0.8;" x="180" xlink:href="#m4adc671441" y="203.528671"/>
      </g>
     </g>
     <g id="text_31">
      <!-- 0.5 -->
      <g transform="translate(159.796875 207.324765)scale(0.1 -0.1)">
       <defs>
        <path d="M 48 21.921875 
Q 48 11.28125 41.1875 5.03125 
Q 34.375 -1.21875 22.953125 -1.21875 
Q 12.9375 -1.21875 8.0625 1.765625 
L 8.0625 10.15625 
Q 15.53125 5.375 23.046875 5.375 
Q 30.765625 5.375 35.46875 9.84375 
Q 40.1875 14.3125 40.1875 21.4375 
Q 40.1875 28.71875 35.390625 32.6875 
Q 30.609375 36.671875 21.578125 36.671875 
Q 15.53125 36.671875 9.421875 35.9375 
L 11.859375 71.875 
L 44.828125 71.875 
L 44.828125 64.796875 
L 18.84375 64.796875 
L 17.28125 43.171875 
Q 21.046875 43.5 24.171875 43.5 
Q 35.359375 43.5 41.671875 37.71875 
Q 48 31.9375 48 21.921875 
z
" id="MalgunGothic-53"/>
       </defs>
       <use xlink:href="#MalgunGothic-48"/>
       <use x="55.078125" xlink:href="#MalgunGothic-46"/>
       <use x="76.953125" xlink:href="#MalgunGothic-53"/>
      </g>
     </g>
    </g>
    <g id="ytick_7">
     <g id="line2d_32">
      <g>
       <use style="stroke:#000000;stroke-width:0.8;" x="180" xlink:href="#m4adc671441" y="157.526769"/>
      </g>
     </g>
     <g id="text_32">
      <!-- 0.6 -->
      <g transform="translate(159.796875 161.322862)scale(0.1 -0.1)">
       <defs>
        <path d="M 46.578125 63.578125 
Q 40.921875 66.40625 34.8125 66.40625 
Q 24.859375 66.40625 19.1875 57.640625 
Q 13.53125 48.875 13.578125 34.578125 
L 13.8125 34.578125 
Q 18.796875 44.875 30.28125 44.875 
Q 39.796875 44.875 45.359375 38.71875 
Q 50.921875 32.5625 50.921875 22.65625 
Q 50.921875 12.453125 44.640625 5.609375 
Q 38.375 -1.21875 28.515625 -1.21875 
Q 17.4375 -1.21875 11.5 7.46875 
Q 5.5625 16.15625 5.5625 31.546875 
Q 5.5625 49.703125 13.234375 61.375 
Q 20.90625 73.046875 34.71875 73.046875 
Q 42.1875 73.046875 46.578125 71 
z
M 14.15625 23.53125 
Q 14.15625 15.96875 18.203125 10.671875 
Q 22.265625 5.375 28.8125 5.375 
Q 35.109375 5.375 39.03125 10.078125 
Q 42.96875 14.796875 42.96875 21.6875 
Q 42.96875 29.5 39.203125 33.859375 
Q 35.453125 38.234375 28.71875 38.234375 
Q 22.5625 38.234375 18.359375 33.953125 
Q 14.15625 29.6875 14.15625 23.53125 
z
" id="MalgunGothic-54"/>
       </defs>
       <use xlink:href="#MalgunGothic-48"/>
       <use x="55.078125" xlink:href="#MalgunGothic-46"/>
       <use x="76.953125" xlink:href="#MalgunGothic-54"/>
      </g>
     </g>
    </g>
    <g id="text_33">
     <!-- CCTV비율 -->
     <g transform="translate(152.723594 301.733232)rotate(-90)scale(0.13 -0.13)">
      <defs>
       <path d="M 58.203125 3.078125 
Q 50.25 -1.21875 38.421875 -1.21875 
Q 23.25 -1.21875 14.015625 8.765625 
Q 4.78125 18.75 4.78125 34.578125 
Q 4.78125 51.265625 14.984375 62.15625 
Q 25.203125 73.046875 41.3125 73.046875 
Q 51.515625 73.046875 58.203125 70.0625 
L 58.203125 61.578125 
Q 50.53125 65.828125 41.15625 65.828125 
Q 28.328125 65.828125 20.703125 57.171875 
Q 13.09375 48.53125 13.09375 35.015625 
Q 13.09375 22.078125 20.265625 14.015625 
Q 27.4375 5.953125 39.40625 5.953125 
Q 50.25 5.953125 58.203125 10.75 
z
" id="MalgunGothic-67"/>
       <path d="M 51.46875 64.59375 
L 30.71875 64.59375 
L 30.71875 0 
L 22.75 0 
L 22.75 64.59375 
L 2.09375 64.59375 
L 2.09375 71.875 
L 51.46875 71.875 
z
" id="MalgunGothic-84"/>
       <path d="M 62.5 71.875 
L 35.75 0 
L 27.09375 0 
L 0.921875 71.875 
L 9.765625 71.875 
L 29.984375 14.40625 
Q 30.90625 11.71875 31.390625 8.109375 
L 31.640625 8.109375 
Q 32.03125 11.140625 33.25 14.5 
L 53.953125 71.875 
z
" id="MalgunGothic-86"/>
       <path d="M 76.3125 -8.796875 
L 76.3125 85.40625 
L 83.59375 85.40625 
L 83.59375 -8.796875 
z
M 12.890625 16.890625 
L 12.890625 78.328125 
L 20.21875 78.328125 
L 20.21875 54.203125 
L 50.6875 54.203125 
L 50.6875 78.328125 
L 58.015625 78.328125 
L 58.015625 16.890625 
z
M 50.6875 47.703125 
L 20.21875 47.703125 
L 20.21875 23.390625 
L 50.6875 23.390625 
z
" id="MalgunGothic-48708"/>
       <path d="M 50 51.8125 
Q 35.453125 51.8125 27.640625 56.328125 
Q 19.828125 60.84375 19.828125 68.40625 
Q 19.828125 75.921875 27.65625 80.46875 
Q 35.5 85.015625 50 85.015625 
Q 64.65625 85.015625 72.40625 80.546875 
Q 80.171875 76.078125 80.171875 68.40625 
Q 80.171875 60.796875 72.375 56.296875 
Q 64.59375 51.8125 50 51.8125 
z
M 50 79.203125 
Q 39.109375 79.203125 33.25 76.21875 
Q 27.390625 73.25 27.390625 68.40625 
Q 27.390625 63.484375 33.296875 60.5 
Q 39.203125 57.515625 50 57.515625 
Q 60.6875 57.515625 66.640625 60.546875 
Q 72.609375 63.578125 72.609375 68.40625 
Q 72.609375 73.140625 66.671875 76.171875 
Q 60.75 79.203125 50 79.203125 
z
M 20.40625 -7.8125 
L 20.40625 13.1875 
L 72.3125 13.1875 
L 72.3125 21.921875 
L 20.40625 21.921875 
L 20.40625 27.875 
L 31.390625 27.875 
L 31.390625 37.890625 
L 6.296875 37.890625 
L 6.296875 44 
L 93.703125 44 
L 93.703125 37.890625 
L 68.609375 37.890625 
L 68.609375 27.875 
L 79.5 27.875 
L 79.5 7.421875 
L 27.59375 7.421875 
L 27.59375 -1.703125 
L 81.984375 -1.703125 
L 81.984375 -7.8125 
z
M 61.375 27.875 
L 61.375 37.890625 
L 38.625 37.890625 
L 38.625 27.875 
z
" id="MalgunGothic-50984"/>
      </defs>
      <use xlink:href="#MalgunGothic-67"/>
      <use x="60.601562" xlink:href="#MalgunGothic-67"/>
      <use x="124.078125" xlink:href="#MalgunGothic-84"/>
      <use x="179.697266" xlink:href="#MalgunGothic-86"/>
      <use x="243.125" xlink:href="#MalgunGothic-48708"/>
      <use x="343.125" xlink:href="#MalgunGothic-50984"/>
     </g>
    </g>
   </g>
   <g id="line2d_33">
    <path clip-path="url(#pe82cb46b95)" d="M 0 0 
" style="fill:none;stroke:#424242;stroke-linecap:square;stroke-width:2.7;"/>
   </g>
   <g id="line2d_34">
    <path clip-path="url(#pe82cb46b95)" d="M 0 0 
" style="fill:none;stroke:#424242;stroke-linecap:square;stroke-width:2.7;"/>
   </g>
   <g id="line2d_35">
    <path clip-path="url(#pe82cb46b95)" d="M 0 0 
" style="fill:none;stroke:#424242;stroke-linecap:square;stroke-width:2.7;"/>
   </g>
   <g id="line2d_36">
    <path clip-path="url(#pe82cb46b95)" d="M 0 0 
" style="fill:none;stroke:#424242;stroke-linecap:square;stroke-width:2.7;"/>
   </g>
   <g id="line2d_37">
    <path clip-path="url(#pe82cb46b95)" d="M 0 0 
" style="fill:none;stroke:#424242;stroke-linecap:square;stroke-width:2.7;"/>
   </g>
   <g id="line2d_38">
    <path clip-path="url(#pe82cb46b95)" d="M 0 0 
" style="fill:none;stroke:#424242;stroke-linecap:square;stroke-width:2.7;"/>
   </g>
   <g id="line2d_39">
    <path clip-path="url(#pe82cb46b95)" d="M 0 0 
" style="fill:none;stroke:#424242;stroke-linecap:square;stroke-width:2.7;"/>
   </g>
   <g id="line2d_40">
    <path clip-path="url(#pe82cb46b95)" d="M 0 0 
" style="fill:none;stroke:#424242;stroke-linecap:square;stroke-width:2.7;"/>
   </g>
   <g id="line2d_41">
    <path clip-path="url(#pe82cb46b95)" d="M 0 0 
" style="fill:none;stroke:#424242;stroke-linecap:square;stroke-width:2.7;"/>
   </g>
   <g id="line2d_42">
    <path clip-path="url(#pe82cb46b95)" d="M 0 0 
" style="fill:none;stroke:#424242;stroke-linecap:square;stroke-width:2.7;"/>
   </g>
   <g id="line2d_43">
    <path clip-path="url(#pe82cb46b95)" d="M 0 0 
" style="fill:none;stroke:#424242;stroke-linecap:square;stroke-width:2.7;"/>
   </g>
   <g id="line2d_44">
    <path clip-path="url(#pe82cb46b95)" d="M 0 0 
" style="fill:none;stroke:#424242;stroke-linecap:square;stroke-width:2.7;"/>
   </g>
   <g id="line2d_45">
    <path clip-path="url(#pe82cb46b95)" d="M 0 0 
" style="fill:none;stroke:#424242;stroke-linecap:square;stroke-width:2.7;"/>
   </g>
   <g id="line2d_46">
    <path clip-path="url(#pe82cb46b95)" d="M 0 0 
" style="fill:none;stroke:#424242;stroke-linecap:square;stroke-width:2.7;"/>
   </g>
   <g id="line2d_47">
    <path clip-path="url(#pe82cb46b95)" d="M 0 0 
" style="fill:none;stroke:#424242;stroke-linecap:square;stroke-width:2.7;"/>
   </g>
   <g id="line2d_48">
    <path clip-path="url(#pe82cb46b95)" d="M 0 0 
" style="fill:none;stroke:#424242;stroke-linecap:square;stroke-width:2.7;"/>
   </g>
   <g id="line2d_49">
    <path clip-path="url(#pe82cb46b95)" d="M 0 0 
" style="fill:none;stroke:#424242;stroke-linecap:square;stroke-width:2.7;"/>
   </g>
   <g id="line2d_50">
    <path clip-path="url(#pe82cb46b95)" d="M 0 0 
" style="fill:none;stroke:#424242;stroke-linecap:square;stroke-width:2.7;"/>
   </g>
   <g id="line2d_51">
    <path clip-path="url(#pe82cb46b95)" d="M 0 0 
" style="fill:none;stroke:#424242;stroke-linecap:square;stroke-width:2.7;"/>
   </g>
   <g id="line2d_52">
    <path clip-path="url(#pe82cb46b95)" d="M 0 0 
" style="fill:none;stroke:#424242;stroke-linecap:square;stroke-width:2.7;"/>
   </g>
   <g id="line2d_53">
    <path clip-path="url(#pe82cb46b95)" d="M 0 0 
" style="fill:none;stroke:#424242;stroke-linecap:square;stroke-width:2.7;"/>
   </g>
   <g id="line2d_54">
    <path clip-path="url(#pe82cb46b95)" d="M 0 0 
" style="fill:none;stroke:#424242;stroke-linecap:square;stroke-width:2.7;"/>
   </g>
   <g id="line2d_55">
    <path clip-path="url(#pe82cb46b95)" d="M 0 0 
" style="fill:none;stroke:#424242;stroke-linecap:square;stroke-width:2.7;"/>
   </g>
   <g id="line2d_56">
    <path clip-path="url(#pe82cb46b95)" d="M 0 0 
" style="fill:none;stroke:#424242;stroke-linecap:square;stroke-width:2.7;"/>
   </g>
   <g id="line2d_57">
    <path clip-path="url(#pe82cb46b95)" d="M 0 0 
" style="fill:none;stroke:#424242;stroke-linecap:square;stroke-width:2.7;"/>
   </g>
   <g id="patch_28">
    <path d="M 180 433.538182 
L 180 112.32 
" style="fill:none;stroke:#000000;stroke-linecap:square;stroke-linejoin:miter;stroke-width:0.8;"/>
   </g>
   <g id="patch_29">
    <path d="M 1296 433.538182 
L 1296 112.32 
" style="fill:none;stroke:#000000;stroke-linecap:square;stroke-linejoin:miter;stroke-width:0.8;"/>
   </g>
   <g id="patch_30">
    <path d="M 180 433.538182 
L 1296 433.538182 
" style="fill:none;stroke:#000000;stroke-linecap:square;stroke-linejoin:miter;stroke-width:0.8;"/>
   </g>
   <g id="patch_31">
    <path d="M 180 112.32 
L 1296 112.32 
" style="fill:none;stroke:#000000;stroke-linecap:square;stroke-linejoin:miter;stroke-width:0.8;"/>
   </g>
   <g id="text_34">
    <!-- 각 구의 인구수 대비 CCTV 비율 -->
    <g transform="translate(617.391641 106.32)scale(0.17 -0.17)">
     <defs>
      <path d="M 80.078125 53.71875 
L 80.078125 33.203125 
L 72.796875 33.203125 
L 72.796875 85.40625 
L 80.078125 85.40625 
L 80.078125 60.203125 
L 94.28125 60.203125 
L 94.28125 53.71875 
z
M 54.890625 80.90625 
Q 52.25 47.953125 12.3125 31.296875 
L 7.171875 37.109375 
Q 23.390625 42.234375 33.859375 52.578125 
Q 44.34375 62.9375 46.296875 74.421875 
L 12.984375 74.421875 
L 12.984375 80.90625 
z
M 72.796875 -8.796875 
L 72.796875 21.390625 
L 19.578125 21.390625 
L 19.578125 27.984375 
L 80.078125 27.984375 
L 80.078125 -8.796875 
z
" id="MalgunGothic-44033"/>
      <path id="MalgunGothic-32"/>
      <path d="M 78.328125 -8.796875 
L 78.328125 85.40625 
L 85.59375 85.40625 
L 85.59375 -8.796875 
z
M 38.28125 33.296875 
Q 27.734375 33.296875 20.546875 39.6875 
Q 13.375 46.09375 13.375 55.8125 
Q 13.375 65.328125 20.5 71.765625 
Q 27.640625 78.21875 38.28125 78.21875 
Q 48.875 78.21875 56.03125 71.71875 
Q 63.1875 65.234375 63.1875 55.8125 
Q 63.1875 46.046875 56.046875 39.671875 
Q 48.921875 33.296875 38.28125 33.296875 
z
M 38.28125 71.78125 
Q 30.859375 71.78125 25.875 67.28125 
Q 20.90625 62.796875 20.90625 55.8125 
Q 20.90625 48.734375 26 44.265625 
Q 31.109375 39.796875 38.28125 39.796875 
Q 45.65625 39.796875 50.6875 44.265625 
Q 55.71875 48.734375 55.71875 55.8125 
Q 55.71875 62.890625 50.734375 67.328125 
Q 45.75 71.78125 38.28125 71.78125 
z
M 7.171875 8.296875 
L 6.5 14.59375 
Q 19.09375 14.59375 41.671875 15.078125 
Q 64.265625 15.578125 71.6875 16.21875 
L 72.125 9.90625 
Q 64.453125 9.28125 41.859375 8.78125 
Q 19.28125 8.296875 7.171875 8.296875 
z
" id="MalgunGothic-51032"/>
      <path d="M 77.296875 16.609375 
L 77.296875 85.40625 
L 84.625 85.40625 
L 84.625 16.609375 
z
M 38.09375 33.984375 
Q 27.546875 33.984375 20.453125 40.640625 
Q 13.375 47.3125 13.375 57.90625 
Q 13.375 68.5625 20.421875 75.171875 
Q 27.484375 81.78125 38.09375 81.78125 
Q 48.6875 81.78125 55.6875 75.1875 
Q 62.703125 68.609375 62.703125 57.90625 
Q 62.703125 47.3125 55.671875 40.640625 
Q 48.640625 33.984375 38.09375 33.984375 
z
M 38.09375 75.296875 
Q 30.375 75.296875 25.53125 70.5625 
Q 20.703125 65.828125 20.703125 57.90625 
Q 20.703125 50 25.515625 45.234375 
Q 30.328125 40.484375 38.09375 40.484375 
Q 45.84375 40.484375 50.671875 45.234375 
Q 55.515625 50 55.515625 57.90625 
Q 55.515625 65.828125 50.671875 70.5625 
Q 45.84375 75.296875 38.09375 75.296875 
z
M 25.203125 -5.171875 
L 25.203125 25.390625 
L 32.515625 25.390625 
L 32.515625 1.421875 
L 87.109375 1.421875 
L 87.109375 -5.171875 
z
" id="MalgunGothic-51064"/>
      <path d="M 85.796875 46.78125 
Q 74.21875 48.390625 63.71875 54.65625 
Q 53.21875 60.9375 50 66.796875 
Q 46.484375 60.796875 36.078125 54.546875 
Q 25.6875 48.296875 14.40625 46.1875 
L 9.90625 52.296875 
Q 24.359375 53.90625 35.328125 61.59375 
Q 46.296875 69.28125 46.296875 78.328125 
L 46.296875 82.421875 
L 53.609375 82.421875 
L 53.609375 78.328125 
Q 53.609375 69.234375 64.34375 61.6875 
Q 75.09375 54.15625 90.09375 52.78125 
z
M 53.609375 28.71875 
L 53.609375 -8.796875 
L 46.296875 -8.796875 
L 46.296875 28.71875 
L 6.296875 28.71875 
L 6.296875 35.203125 
L 93.703125 35.203125 
L 93.703125 28.71875 
z
" id="MalgunGothic-49688"/>
     </defs>
     <use xlink:href="#MalgunGothic-44033"/>
     <use x="100" xlink:href="#MalgunGothic-32"/>
     <use x="135.15625" xlink:href="#MalgunGothic-44396"/>
     <use x="235.15625" xlink:href="#MalgunGothic-51032"/>
     <use x="335.15625" xlink:href="#MalgunGothic-32"/>
     <use x="370.3125" xlink:href="#MalgunGothic-51064"/>
     <use x="470.3125" xlink:href="#MalgunGothic-44396"/>
     <use x="570.3125" xlink:href="#MalgunGothic-49688"/>
     <use x="670.3125" xlink:href="#MalgunGothic-32"/>
     <use x="705.46875" xlink:href="#MalgunGothic-45824"/>
     <use x="805.46875" xlink:href="#MalgunGothic-48708"/>
     <use x="905.46875" xlink:href="#MalgunGothic-32"/>
     <use x="940.625" xlink:href="#MalgunGothic-67"/>
     <use x="1001.226562" xlink:href="#MalgunGothic-67"/>
     <use x="1064.703125" xlink:href="#MalgunGothic-84"/>
     <use x="1120.322266" xlink:href="#MalgunGothic-86"/>
     <use x="1183.75" xlink:href="#MalgunGothic-32"/>
     <use x="1218.90625" xlink:href="#MalgunGothic-48708"/>
     <use x="1318.90625" xlink:href="#MalgunGothic-50984"/>
    </g>
   </g>
  </g>
  <g id="axes_2">
   <g id="patch_32">
    <path d="M 180 819 
L 1296 819 
L 1296 497.781818 
L 180 497.781818 
z
" style="fill:#ffffff;"/>
   </g>
   <g id="PathCollection_1">
    <defs>
     <path d="M 0 5.477226 
C 1.452577 5.477226 2.845856 4.900111 3.872983 3.872983 
C 4.900111 2.845856 5.477226 1.452577 5.477226 -0 
C 5.477226 -1.452577 4.900111 -2.845856 3.872983 -3.872983 
C 2.845856 -4.900111 1.452577 -5.477226 0 -5.477226 
C -1.452577 -5.477226 -2.845856 -4.900111 -3.872983 -3.872983 
C -4.900111 -2.845856 -5.477226 -1.452577 -5.477226 0 
C -5.477226 1.452577 -4.900111 2.845856 -3.872983 3.872983 
C -2.845856 4.900111 -1.452577 5.477226 0 5.477226 
z
" id="C0_0_2246d5c087"/>
    </defs>
    <g clip-path="url(#pa4172f91ad)">
     <use style="fill:#f77189;stroke:#ffffff;stroke-width:0.876356;" x="230.727273" xlink:href="#C0_0_2246d5c087" y="793.73085"/>
    </g>
    <g clip-path="url(#pa4172f91ad)">
     <use style="fill:#f7745f;stroke:#ffffff;stroke-width:0.876356;" x="273" xlink:href="#C0_0_2246d5c087" y="743.884247"/>
    </g>
    <g clip-path="url(#pa4172f91ad)">
     <use style="fill:#e98132;stroke:#ffffff;stroke-width:0.876356;" x="315.272727" xlink:href="#C0_0_2246d5c087" y="512.382645"/>
    </g>
    <g clip-path="url(#pa4172f91ad)">
     <use style="fill:#d18e32;stroke:#ffffff;stroke-width:0.876356;" x="357.545455" xlink:href="#C0_0_2246d5c087" y="745.708484"/>
    </g>
    <g clip-path="url(#pa4172f91ad)">
     <use style="fill:#be9732;stroke:#ffffff;stroke-width:0.876356;" x="399.818182" xlink:href="#C0_0_2246d5c087" y="697.893727"/>
    </g>
    <g clip-path="url(#pa4172f91ad)">
     <use style="fill:#ae9d31;stroke:#ffffff;stroke-width:0.876356;" x="442.090909" xlink:href="#C0_0_2246d5c087" y="779.957338"/>
    </g>
    <g clip-path="url(#pa4172f91ad)">
     <use style="fill:#9ca231;stroke:#ffffff;stroke-width:0.876356;" x="484.363636" xlink:href="#C0_0_2246d5c087" y="711.420584"/>
    </g>
    <g clip-path="url(#pa4172f91ad)">
     <use style="fill:#86a831;stroke:#ffffff;stroke-width:0.876356;" x="526.636364" xlink:href="#C0_0_2246d5c087" y="699.422382"/>
    </g>
    <g clip-path="url(#pa4172f91ad)">
     <use style="fill:#63ae31;stroke:#ffffff;stroke-width:0.876356;" x="568.909091" xlink:href="#C0_0_2246d5c087" y="714.200607"/>
    </g>
    <g clip-path="url(#pa4172f91ad)">
     <use style="fill:#32b252;stroke:#ffffff;stroke-width:0.876356;" x="611.181818" xlink:href="#C0_0_2246d5c087" y="608.20757"/>
    </g>
    <g clip-path="url(#pa4172f91ad)">
     <use style="fill:#33b07a;stroke:#ffffff;stroke-width:0.876356;" x="653.454545" xlink:href="#C0_0_2246d5c087" y="611.067033"/>
    </g>
    <g clip-path="url(#pa4172f91ad)">
     <use style="fill:#34af8f;stroke:#ffffff;stroke-width:0.876356;" x="695.727273" xlink:href="#C0_0_2246d5c087" y="666.188855"/>
    </g>
    <g clip-path="url(#pa4172f91ad)">
     <use style="fill:#35ad9e;stroke:#ffffff;stroke-width:0.876356;" x="738" xlink:href="#C0_0_2246d5c087" y="720.296324"/>
    </g>
    <g clip-path="url(#pa4172f91ad)">
     <use style="fill:#36acaa;stroke:#ffffff;stroke-width:0.876356;" x="780.272727" xlink:href="#C0_0_2246d5c087" y="608.040154"/>
    </g>
    <g clip-path="url(#pa4172f91ad)">
     <use style="fill:#37abb7;stroke:#ffffff;stroke-width:0.876356;" x="822.545455" xlink:href="#C0_0_2246d5c087" y="772.554341"/>
    </g>
    <g clip-path="url(#pa4172f91ad)">
     <use style="fill:#38a9c5;stroke:#ffffff;stroke-width:0.876356;" x="864.818182" xlink:href="#C0_0_2246d5c087" y="703.217338"/>
    </g>
    <g clip-path="url(#pa4172f91ad)">
     <use style="fill:#3aa6d9;stroke:#ffffff;stroke-width:0.876356;" x="907.090909" xlink:href="#C0_0_2246d5c087" y="643.448866"/>
    </g>
    <g clip-path="url(#pa4172f91ad)">
     <use style="fill:#4aa0f4;stroke:#ffffff;stroke-width:0.876356;" x="949.363636" xlink:href="#C0_0_2246d5c087" y="804.399174"/>
    </g>
    <g clip-path="url(#pa4172f91ad)">
     <use style="fill:#8795f4;stroke:#ffffff;stroke-width:0.876356;" x="991.636364" xlink:href="#C0_0_2246d5c087" y="795.525023"/>
    </g>
    <g clip-path="url(#pa4172f91ad)">
     <use style="fill:#ac89f4;stroke:#ffffff;stroke-width:0.876356;" x="1033.909091" xlink:href="#C0_0_2246d5c087" y="695.303233"/>
    </g>
    <g clip-path="url(#pa4172f91ad)">
     <use style="fill:#cc7af4;stroke:#ffffff;stroke-width:0.876356;" x="1076.181818" xlink:href="#C0_0_2246d5c087" y="602.155263"/>
    </g>
    <g clip-path="url(#pa4172f91ad)">
     <use style="fill:#ee61f4;stroke:#ffffff;stroke-width:0.876356;" x="1118.454545" xlink:href="#C0_0_2246d5c087" y="612.609319"/>
    </g>
    <g clip-path="url(#pa4172f91ad)">
     <use style="fill:#f562da;stroke:#ffffff;stroke-width:0.876356;" x="1160.727273" xlink:href="#C0_0_2246d5c087" y="562.510058"/>
    </g>
    <g clip-path="url(#pa4172f91ad)">
     <use style="fill:#f668c0;stroke:#ffffff;stroke-width:0.876356;" x="1203" xlink:href="#C0_0_2246d5c087" y="564.112952"/>
    </g>
    <g clip-path="url(#pa4172f91ad)">
     <use style="fill:#f66ca7;stroke:#ffffff;stroke-width:0.876356;" x="1245.272727" xlink:href="#C0_0_2246d5c087" y="660.151077"/>
    </g>
   </g>
   <g id="matplotlib.axis_3">
    <g id="xtick_26">
     <g id="line2d_58">
      <g>
       <use style="stroke:#000000;stroke-width:0.8;" x="230.727273" xlink:href="#ma587a10255" y="819"/>
      </g>
     </g>
     <g id="text_35">
      <!-- 강남구 -->
      <g transform="translate(215.727273 833.592187)scale(0.1 -0.1)">
       <use xlink:href="#MalgunGothic-44053"/>
       <use x="100" xlink:href="#MalgunGothic-45224"/>
       <use x="200" xlink:href="#MalgunGothic-44396"/>
      </g>
     </g>
    </g>
    <g id="xtick_27">
     <g id="line2d_59">
      <g>
       <use style="stroke:#000000;stroke-width:0.8;" x="273" xlink:href="#ma587a10255" y="819"/>
      </g>
     </g>
     <g id="text_36">
      <!-- 강동구 -->
      <g transform="translate(258 833.592187)scale(0.1 -0.1)">
       <use xlink:href="#MalgunGothic-44053"/>
       <use x="100" xlink:href="#MalgunGothic-46041"/>
       <use x="200" xlink:href="#MalgunGothic-44396"/>
      </g>
     </g>
    </g>
    <g id="xtick_28">
     <g id="line2d_60">
      <g>
       <use style="stroke:#000000;stroke-width:0.8;" x="315.272727" xlink:href="#ma587a10255" y="819"/>
      </g>
     </g>
     <g id="text_37">
      <!-- 강북구 -->
      <g transform="translate(300.272727 833.592187)scale(0.1 -0.1)">
       <use xlink:href="#MalgunGothic-44053"/>
       <use x="100" xlink:href="#MalgunGothic-48513"/>
       <use x="200" xlink:href="#MalgunGothic-44396"/>
      </g>
     </g>
    </g>
    <g id="xtick_29">
     <g id="line2d_61">
      <g>
       <use style="stroke:#000000;stroke-width:0.8;" x="357.545455" xlink:href="#ma587a10255" y="819"/>
      </g>
     </g>
     <g id="text_38">
      <!-- 강서구 -->
      <g transform="translate(342.545455 833.592187)scale(0.1 -0.1)">
       <use xlink:href="#MalgunGothic-44053"/>
       <use x="100" xlink:href="#MalgunGothic-49436"/>
       <use x="200" xlink:href="#MalgunGothic-44396"/>
      </g>
     </g>
    </g>
    <g id="xtick_30">
     <g id="line2d_62">
      <g>
       <use style="stroke:#000000;stroke-width:0.8;" x="399.818182" xlink:href="#ma587a10255" y="819"/>
      </g>
     </g>
     <g id="text_39">
      <!-- 관악구 -->
      <g transform="translate(384.818182 833.592187)scale(0.1 -0.1)">
       <use xlink:href="#MalgunGothic-44288"/>
       <use x="100" xlink:href="#MalgunGothic-50501"/>
       <use x="200" xlink:href="#MalgunGothic-44396"/>
      </g>
     </g>
    </g>
    <g id="xtick_31">
     <g id="line2d_63">
      <g>
       <use style="stroke:#000000;stroke-width:0.8;" x="442.090909" xlink:href="#ma587a10255" y="819"/>
      </g>
     </g>
     <g id="text_40">
      <!-- 광진구 -->
      <g transform="translate(427.090909 833.592187)scale(0.1 -0.1)">
       <use xlink:href="#MalgunGothic-44305"/>
       <use x="100" xlink:href="#MalgunGothic-51652"/>
       <use x="200" xlink:href="#MalgunGothic-44396"/>
      </g>
     </g>
    </g>
    <g id="xtick_32">
     <g id="line2d_64">
      <g>
       <use style="stroke:#000000;stroke-width:0.8;" x="484.363636" xlink:href="#ma587a10255" y="819"/>
      </g>
     </g>
     <g id="text_41">
      <!-- 구로구 -->
      <g transform="translate(469.363636 833.592187)scale(0.1 -0.1)">
       <use xlink:href="#MalgunGothic-44396"/>
       <use x="100" xlink:href="#MalgunGothic-47196"/>
       <use x="200" xlink:href="#MalgunGothic-44396"/>
      </g>
     </g>
    </g>
    <g id="xtick_33">
     <g id="line2d_65">
      <g>
       <use style="stroke:#000000;stroke-width:0.8;" x="526.636364" xlink:href="#ma587a10255" y="819"/>
      </g>
     </g>
     <g id="text_42">
      <!-- 금천구 -->
      <g transform="translate(511.636364 833.592187)scale(0.1 -0.1)">
       <use xlink:href="#MalgunGothic-44552"/>
       <use x="100" xlink:href="#MalgunGothic-52380"/>
       <use x="200" xlink:href="#MalgunGothic-44396"/>
      </g>
     </g>
    </g>
    <g id="xtick_34">
     <g id="line2d_66">
      <g>
       <use style="stroke:#000000;stroke-width:0.8;" x="568.909091" xlink:href="#ma587a10255" y="819"/>
      </g>
     </g>
     <g id="text_43">
      <!-- 노원구 -->
      <g transform="translate(553.909091 833.592187)scale(0.1 -0.1)">
       <use xlink:href="#MalgunGothic-45432"/>
       <use x="100" xlink:href="#MalgunGothic-50896"/>
       <use x="200" xlink:href="#MalgunGothic-44396"/>
      </g>
     </g>
    </g>
    <g id="xtick_35">
     <g id="line2d_67">
      <g>
       <use style="stroke:#000000;stroke-width:0.8;" x="611.181818" xlink:href="#ma587a10255" y="819"/>
      </g>
     </g>
     <g id="text_44">
      <!-- 도봉구 -->
      <g transform="translate(596.181818 833.592187)scale(0.1 -0.1)">
       <use xlink:href="#MalgunGothic-46020"/>
       <use x="100" xlink:href="#MalgunGothic-48393"/>
       <use x="200" xlink:href="#MalgunGothic-44396"/>
      </g>
     </g>
    </g>
    <g id="xtick_36">
     <g id="line2d_68">
      <g>
       <use style="stroke:#000000;stroke-width:0.8;" x="653.454545" xlink:href="#ma587a10255" y="819"/>
      </g>
     </g>
     <g id="text_45">
      <!-- 동대문구 -->
      <g transform="translate(633.454545 833.592187)scale(0.1 -0.1)">
       <use xlink:href="#MalgunGothic-46041"/>
       <use x="100" xlink:href="#MalgunGothic-45824"/>
       <use x="200" xlink:href="#MalgunGothic-47928"/>
       <use x="300" xlink:href="#MalgunGothic-44396"/>
      </g>
     </g>
    </g>
    <g id="xtick_37">
     <g id="line2d_69">
      <g>
       <use style="stroke:#000000;stroke-width:0.8;" x="695.727273" xlink:href="#ma587a10255" y="819"/>
      </g>
     </g>
     <g id="text_46">
      <!-- 동작구 -->
      <g transform="translate(680.727273 833.592187)scale(0.1 -0.1)">
       <use xlink:href="#MalgunGothic-46041"/>
       <use x="100" xlink:href="#MalgunGothic-51089"/>
       <use x="200" xlink:href="#MalgunGothic-44396"/>
      </g>
     </g>
    </g>
    <g id="xtick_38">
     <g id="line2d_70">
      <g>
       <use style="stroke:#000000;stroke-width:0.8;" x="738" xlink:href="#ma587a10255" y="819"/>
      </g>
     </g>
     <g id="text_47">
      <!-- 마포구 -->
      <g transform="translate(723 833.592187)scale(0.1 -0.1)">
       <use xlink:href="#MalgunGothic-47560"/>
       <use x="100" xlink:href="#MalgunGothic-54252"/>
       <use x="200" xlink:href="#MalgunGothic-44396"/>
      </g>
     </g>
    </g>
    <g id="xtick_39">
     <g id="line2d_71">
      <g>
       <use style="stroke:#000000;stroke-width:0.8;" x="780.272727" xlink:href="#ma587a10255" y="819"/>
      </g>
     </g>
     <g id="text_48">
      <!-- 서대문구 -->
      <g transform="translate(760.272727 833.592187)scale(0.1 -0.1)">
       <use xlink:href="#MalgunGothic-49436"/>
       <use x="100" xlink:href="#MalgunGothic-45824"/>
       <use x="200" xlink:href="#MalgunGothic-47928"/>
       <use x="300" xlink:href="#MalgunGothic-44396"/>
      </g>
     </g>
    </g>
    <g id="xtick_40">
     <g id="line2d_72">
      <g>
       <use style="stroke:#000000;stroke-width:0.8;" x="822.545455" xlink:href="#ma587a10255" y="819"/>
      </g>
     </g>
     <g id="text_49">
      <!-- 서초구 -->
      <g transform="translate(807.545455 833.592187)scale(0.1 -0.1)">
       <use xlink:href="#MalgunGothic-49436"/>
       <use x="100" xlink:href="#MalgunGothic-52488"/>
       <use x="200" xlink:href="#MalgunGothic-44396"/>
      </g>
     </g>
    </g>
    <g id="xtick_41">
     <g id="line2d_73">
      <g>
       <use style="stroke:#000000;stroke-width:0.8;" x="864.818182" xlink:href="#ma587a10255" y="819"/>
      </g>
     </g>
     <g id="text_50">
      <!-- 성동구 -->
      <g transform="translate(849.818182 833.592187)scale(0.1 -0.1)">
       <use xlink:href="#MalgunGothic-49457"/>
       <use x="100" xlink:href="#MalgunGothic-46041"/>
       <use x="200" xlink:href="#MalgunGothic-44396"/>
      </g>
     </g>
    </g>
    <g id="xtick_42">
     <g id="line2d_74">
      <g>
       <use style="stroke:#000000;stroke-width:0.8;" x="907.090909" xlink:href="#ma587a10255" y="819"/>
      </g>
     </g>
     <g id="text_51">
      <!-- 성북구 -->
      <g transform="translate(892.090909 833.592187)scale(0.1 -0.1)">
       <use xlink:href="#MalgunGothic-49457"/>
       <use x="100" xlink:href="#MalgunGothic-48513"/>
       <use x="200" xlink:href="#MalgunGothic-44396"/>
      </g>
     </g>
    </g>
    <g id="xtick_43">
     <g id="line2d_75">
      <g>
       <use style="stroke:#000000;stroke-width:0.8;" x="949.363636" xlink:href="#ma587a10255" y="819"/>
      </g>
     </g>
     <g id="text_52">
      <!-- 송파구 -->
      <g transform="translate(934.363636 833.592187)scale(0.1 -0.1)">
       <use xlink:href="#MalgunGothic-49569"/>
       <use x="100" xlink:href="#MalgunGothic-54028"/>
       <use x="200" xlink:href="#MalgunGothic-44396"/>
      </g>
     </g>
    </g>
    <g id="xtick_44">
     <g id="line2d_76">
      <g>
       <use style="stroke:#000000;stroke-width:0.8;" x="991.636364" xlink:href="#ma587a10255" y="819"/>
      </g>
     </g>
     <g id="text_53">
      <!-- 양천구 -->
      <g transform="translate(976.636364 833.592187)scale(0.1 -0.1)">
       <use xlink:href="#MalgunGothic-50577"/>
       <use x="100" xlink:href="#MalgunGothic-52380"/>
       <use x="200" xlink:href="#MalgunGothic-44396"/>
      </g>
     </g>
    </g>
    <g id="xtick_45">
     <g id="line2d_77">
      <g>
       <use style="stroke:#000000;stroke-width:0.8;" x="1033.909091" xlink:href="#ma587a10255" y="819"/>
      </g>
     </g>
     <g id="text_54">
      <!-- 영등포구 -->
      <g transform="translate(1013.909091 833.592187)scale(0.1 -0.1)">
       <use xlink:href="#MalgunGothic-50689"/>
       <use x="100" xlink:href="#MalgunGothic-46321"/>
       <use x="200" xlink:href="#MalgunGothic-54252"/>
       <use x="300" xlink:href="#MalgunGothic-44396"/>
      </g>
     </g>
    </g>
    <g id="xtick_46">
     <g id="line2d_78">
      <g>
       <use style="stroke:#000000;stroke-width:0.8;" x="1076.181818" xlink:href="#ma587a10255" y="819"/>
      </g>
     </g>
     <g id="text_55">
      <!-- 용산구 -->
      <g transform="translate(1061.181818 833.592187)scale(0.1 -0.1)">
       <use xlink:href="#MalgunGothic-50857"/>
       <use x="100" xlink:href="#MalgunGothic-49328"/>
       <use x="200" xlink:href="#MalgunGothic-44396"/>
      </g>
     </g>
    </g>
    <g id="xtick_47">
     <g id="line2d_79">
      <g>
       <use style="stroke:#000000;stroke-width:0.8;" x="1118.454545" xlink:href="#ma587a10255" y="819"/>
      </g>
     </g>
     <g id="text_56">
      <!-- 은평구 -->
      <g transform="translate(1103.454545 833.592187)scale(0.1 -0.1)">
       <use xlink:href="#MalgunGothic-51008"/>
       <use x="100" xlink:href="#MalgunGothic-54217"/>
       <use x="200" xlink:href="#MalgunGothic-44396"/>
      </g>
     </g>
    </g>
    <g id="xtick_48">
     <g id="line2d_80">
      <g>
       <use style="stroke:#000000;stroke-width:0.8;" x="1160.727273" xlink:href="#ma587a10255" y="819"/>
      </g>
     </g>
     <g id="text_57">
      <!-- 종로구 -->
      <g transform="translate(1145.727273 833.592187)scale(0.1 -0.1)">
       <use xlink:href="#MalgunGothic-51333"/>
       <use x="100" xlink:href="#MalgunGothic-47196"/>
       <use x="200" xlink:href="#MalgunGothic-44396"/>
      </g>
     </g>
    </g>
    <g id="xtick_49">
     <g id="line2d_81">
      <g>
       <use style="stroke:#000000;stroke-width:0.8;" x="1203" xlink:href="#ma587a10255" y="819"/>
      </g>
     </g>
     <g id="text_58">
      <!-- 중구 -->
      <g transform="translate(1193 833.592187)scale(0.1 -0.1)">
       <use xlink:href="#MalgunGothic-51473"/>
       <use x="100" xlink:href="#MalgunGothic-44396"/>
      </g>
     </g>
    </g>
    <g id="xtick_50">
     <g id="line2d_82">
      <g>
       <use style="stroke:#000000;stroke-width:0.8;" x="1245.272727" xlink:href="#ma587a10255" y="819"/>
      </g>
     </g>
     <g id="text_59">
      <!-- 중랑구 -->
      <g transform="translate(1230.272727 833.592187)scale(0.1 -0.1)">
       <use xlink:href="#MalgunGothic-51473"/>
       <use x="100" xlink:href="#MalgunGothic-46993"/>
       <use x="200" xlink:href="#MalgunGothic-44396"/>
      </g>
     </g>
    </g>
   </g>
   <g id="matplotlib.axis_4">
    <g id="ytick_8">
     <g id="line2d_83">
      <g>
       <use style="stroke:#000000;stroke-width:0.8;" x="180" xlink:href="#m4adc671441" y="797.406278"/>
      </g>
     </g>
     <g id="text_60">
      <!-- 11 -->
      <g transform="translate(161.984375 801.202372)scale(0.1 -0.1)">
       <use xlink:href="#MalgunGothic-49"/>
       <use x="55.078125" xlink:href="#MalgunGothic-49"/>
      </g>
     </g>
    </g>
    <g id="ytick_9">
     <g id="line2d_84">
      <g>
       <use style="stroke:#000000;stroke-width:0.8;" x="180" xlink:href="#m4adc671441" y="746.512305"/>
      </g>
     </g>
     <g id="text_61">
      <!-- 12 -->
      <g transform="translate(161.984375 750.308399)scale(0.1 -0.1)">
       <use xlink:href="#MalgunGothic-49"/>
       <use x="55.078125" xlink:href="#MalgunGothic-50"/>
      </g>
     </g>
    </g>
    <g id="ytick_10">
     <g id="line2d_85">
      <g>
       <use style="stroke:#000000;stroke-width:0.8;" x="180" xlink:href="#m4adc671441" y="695.618333"/>
      </g>
     </g>
     <g id="text_62">
      <!-- 13 -->
      <g transform="translate(161.984375 699.414426)scale(0.1 -0.1)">
       <use xlink:href="#MalgunGothic-49"/>
       <use x="55.078125" xlink:href="#MalgunGothic-51"/>
      </g>
     </g>
    </g>
    <g id="ytick_11">
     <g id="line2d_86">
      <g>
       <use style="stroke:#000000;stroke-width:0.8;" x="180" xlink:href="#m4adc671441" y="644.72436"/>
      </g>
     </g>
     <g id="text_63">
      <!-- 14 -->
      <g transform="translate(161.984375 648.520454)scale(0.1 -0.1)">
       <use xlink:href="#MalgunGothic-49"/>
       <use x="55.078125" xlink:href="#MalgunGothic-52"/>
      </g>
     </g>
    </g>
    <g id="ytick_12">
     <g id="line2d_87">
      <g>
       <use style="stroke:#000000;stroke-width:0.8;" x="180" xlink:href="#m4adc671441" y="593.830387"/>
      </g>
     </g>
     <g id="text_64">
      <!-- 15 -->
      <g transform="translate(161.984375 597.626481)scale(0.1 -0.1)">
       <use xlink:href="#MalgunGothic-49"/>
       <use x="55.078125" xlink:href="#MalgunGothic-53"/>
      </g>
     </g>
    </g>
    <g id="ytick_13">
     <g id="line2d_88">
      <g>
       <use style="stroke:#000000;stroke-width:0.8;" x="180" xlink:href="#m4adc671441" y="542.936415"/>
      </g>
     </g>
     <g id="text_65">
      <!-- 16 -->
      <g transform="translate(161.984375 546.732508)scale(0.1 -0.1)">
       <use xlink:href="#MalgunGothic-49"/>
       <use x="55.078125" xlink:href="#MalgunGothic-54"/>
      </g>
     </g>
    </g>
    <g id="text_66">
     <!-- 노인비율 -->
     <g transform="translate(154.911094 684.390909)rotate(-90)scale(0.13 -0.13)">
      <use xlink:href="#MalgunGothic-45432"/>
      <use x="100" xlink:href="#MalgunGothic-51064"/>
      <use x="200" xlink:href="#MalgunGothic-48708"/>
      <use x="300" xlink:href="#MalgunGothic-50984"/>
     </g>
    </g>
   </g>
   <g id="line2d_89">
    <path clip-path="url(#pa4172f91ad)" d="M 230.727273 793.73085 
L 273 743.884247 
L 315.272727 512.382645 
L 357.545455 745.708484 
L 399.818182 697.893727 
L 442.090909 779.957338 
L 484.363636 711.420584 
L 526.636364 699.422382 
L 568.909091 714.200607 
L 611.181818 608.20757 
L 653.454545 611.067033 
L 695.727273 666.188855 
L 738 720.296324 
L 780.272727 608.040154 
L 822.545455 772.554341 
L 864.818182 703.217338 
L 907.090909 643.448866 
L 949.363636 804.399174 
L 991.636364 795.525023 
L 1033.909091 695.303233 
L 1076.181818 602.155263 
L 1118.454545 612.609319 
L 1160.727273 562.510058 
L 1203 564.112952 
L 1245.272727 660.151077 
" style="fill:none;stroke:#ffa500;stroke-linecap:square;stroke-width:1.5;"/>
    <defs>
     <path d="M 0 0 
L 6 0 
" id="m14b51539cf" style="stroke:#ffffff;stroke-width:0.75;"/>
    </defs>
    <g clip-path="url(#pa4172f91ad)">
     <use style="fill:#ffa500;stroke:#ffffff;stroke-width:0.75;" x="230.727273" xlink:href="#m14b51539cf" y="793.73085"/>
     <use style="fill:#ffa500;stroke:#ffffff;stroke-width:0.75;" x="273" xlink:href="#m14b51539cf" y="743.884247"/>
     <use style="fill:#ffa500;stroke:#ffffff;stroke-width:0.75;" x="315.272727" xlink:href="#m14b51539cf" y="512.382645"/>
     <use style="fill:#ffa500;stroke:#ffffff;stroke-width:0.75;" x="357.545455" xlink:href="#m14b51539cf" y="745.708484"/>
     <use style="fill:#ffa500;stroke:#ffffff;stroke-width:0.75;" x="399.818182" xlink:href="#m14b51539cf" y="697.893727"/>
     <use style="fill:#ffa500;stroke:#ffffff;stroke-width:0.75;" x="442.090909" xlink:href="#m14b51539cf" y="779.957338"/>
     <use style="fill:#ffa500;stroke:#ffffff;stroke-width:0.75;" x="484.363636" xlink:href="#m14b51539cf" y="711.420584"/>
     <use style="fill:#ffa500;stroke:#ffffff;stroke-width:0.75;" x="526.636364" xlink:href="#m14b51539cf" y="699.422382"/>
     <use style="fill:#ffa500;stroke:#ffffff;stroke-width:0.75;" x="568.909091" xlink:href="#m14b51539cf" y="714.200607"/>
     <use style="fill:#ffa500;stroke:#ffffff;stroke-width:0.75;" x="611.181818" xlink:href="#m14b51539cf" y="608.20757"/>
     <use style="fill:#ffa500;stroke:#ffffff;stroke-width:0.75;" x="653.454545" xlink:href="#m14b51539cf" y="611.067033"/>
     <use style="fill:#ffa500;stroke:#ffffff;stroke-width:0.75;" x="695.727273" xlink:href="#m14b51539cf" y="666.188855"/>
     <use style="fill:#ffa500;stroke:#ffffff;stroke-width:0.75;" x="738" xlink:href="#m14b51539cf" y="720.296324"/>
     <use style="fill:#ffa500;stroke:#ffffff;stroke-width:0.75;" x="780.272727" xlink:href="#m14b51539cf" y="608.040154"/>
     <use style="fill:#ffa500;stroke:#ffffff;stroke-width:0.75;" x="822.545455" xlink:href="#m14b51539cf" y="772.554341"/>
     <use style="fill:#ffa500;stroke:#ffffff;stroke-width:0.75;" x="864.818182" xlink:href="#m14b51539cf" y="703.217338"/>
     <use style="fill:#ffa500;stroke:#ffffff;stroke-width:0.75;" x="907.090909" xlink:href="#m14b51539cf" y="643.448866"/>
     <use style="fill:#ffa500;stroke:#ffffff;stroke-width:0.75;" x="949.363636" xlink:href="#m14b51539cf" y="804.399174"/>
     <use style="fill:#ffa500;stroke:#ffffff;stroke-width:0.75;" x="991.636364" xlink:href="#m14b51539cf" y="795.525023"/>
     <use style="fill:#ffa500;stroke:#ffffff;stroke-width:0.75;" x="1033.909091" xlink:href="#m14b51539cf" y="695.303233"/>
     <use style="fill:#ffa500;stroke:#ffffff;stroke-width:0.75;" x="1076.181818" xlink:href="#m14b51539cf" y="602.155263"/>
     <use style="fill:#ffa500;stroke:#ffffff;stroke-width:0.75;" x="1118.454545" xlink:href="#m14b51539cf" y="612.609319"/>
     <use style="fill:#ffa500;stroke:#ffffff;stroke-width:0.75;" x="1160.727273" xlink:href="#m14b51539cf" y="562.510058"/>
     <use style="fill:#ffa500;stroke:#ffffff;stroke-width:0.75;" x="1203" xlink:href="#m14b51539cf" y="564.112952"/>
     <use style="fill:#ffa500;stroke:#ffffff;stroke-width:0.75;" x="1245.272727" xlink:href="#m14b51539cf" y="660.151077"/>
    </g>
   </g>
   <g id="patch_33">
    <path d="M 180 819 
L 180 497.781818 
" style="fill:none;stroke:#000000;stroke-linecap:square;stroke-linejoin:miter;stroke-width:0.8;"/>
   </g>
   <g id="patch_34">
    <path d="M 1296 819 
L 1296 497.781818 
" style="fill:none;stroke:#000000;stroke-linecap:square;stroke-linejoin:miter;stroke-width:0.8;"/>
   </g>
   <g id="patch_35">
    <path d="M 180 819 
L 1296 819 
" style="fill:none;stroke:#000000;stroke-linecap:square;stroke-linejoin:miter;stroke-width:0.8;"/>
   </g>
   <g id="patch_36">
    <path d="M 180 497.781818 
L 1296 497.781818 
" style="fill:none;stroke:#000000;stroke-linecap:square;stroke-linejoin:miter;stroke-width:0.8;"/>
   </g>
   <g id="text_67">
    <!-- 각 구의 인구수 대비 고령자 비율 -->
    <g transform="translate(612.558594 491.781818)scale(0.17 -0.17)">
     <defs>
      <path d="M 77.484375 25.875 
L 70.40625 26.515625 
Q 72.125 42.09375 72.125 55.21875 
L 72.125 69.921875 
L 19 69.921875 
L 19 76.515625 
L 79.390625 76.515625 
L 79.390625 55.078125 
Q 79.390625 40.828125 77.484375 25.875 
z
M 6.296875 8.015625 
L 6.296875 14.59375 
L 41.015625 14.59375 
L 41.015625 45.3125 
L 48.296875 45.3125 
L 48.296875 14.59375 
L 93.703125 14.59375 
L 93.703125 8.015625 
z
" id="MalgunGothic-44256"/>
      <path d="M 59.90625 46.921875 
L 59.90625 53.21875 
L 77.296875 53.21875 
L 77.296875 63.921875 
L 60.109375 63.921875 
L 60.109375 70.3125 
L 77.296875 70.3125 
L 77.296875 85.40625 
L 84.625 85.40625 
L 84.625 28.609375 
L 77.296875 28.609375 
L 77.296875 46.921875 
z
M 58.296875 35.5 
Q 50.734375 34.234375 43.921875 33.953125 
Q 37.109375 33.6875 15.484375 33.6875 
L 15.484375 61.625 
L 46.484375 61.625 
L 46.484375 74.421875 
L 15.484375 74.421875 
L 15.484375 80.8125 
L 53.8125 80.8125 
L 53.8125 55.21875 
L 22.796875 55.21875 
L 22.796875 40.1875 
L 33.84375 40.1875 
Q 48.78125 40.1875 57.328125 41.796875 
z
M 54.5 -7.515625 
Q 39.546875 -7.515625 31.5625 -2.953125 
Q 23.578125 1.609375 23.578125 9.421875 
Q 23.578125 17.1875 31.515625 21.796875 
Q 39.453125 26.421875 54.5 26.421875 
Q 69.734375 26.421875 77.609375 21.828125 
Q 85.5 17.234375 85.5 9.421875 
Q 85.5 1.5625 77.5625 -2.96875 
Q 69.625 -7.515625 54.5 -7.515625 
z
M 54.5 20.21875 
Q 43.0625 20.21875 37.21875 17.3125 
Q 31.390625 14.40625 31.390625 9.421875 
Q 31.390625 4.34375 37.328125 1.515625 
Q 43.265625 -1.3125 54.5 -1.3125 
Q 65.671875 -1.3125 71.71875 1.46875 
Q 77.78125 4.25 77.78125 9.421875 
Q 77.78125 14.5 71.828125 17.359375 
Q 65.875 20.21875 54.5 20.21875 
z
" id="MalgunGothic-47161"/>
      <path d="M 79.59375 40.625 
L 79.59375 -8.796875 
L 72.3125 -8.796875 
L 72.3125 85.40625 
L 79.59375 85.40625 
L 79.59375 47.125 
L 95.90625 47.125 
L 95.90625 40.625 
z
M 57.421875 14.203125 
Q 50.4375 19.53125 43.875 28.3125 
Q 37.3125 37.109375 35.109375 44.09375 
Q 33.203125 37.40625 26.75 28.265625 
Q 20.3125 19.140625 12.5 12.890625 
L 6.890625 17.71875 
Q 17.1875 24.515625 24.234375 36.9375 
Q 31.296875 49.359375 31.296875 60.796875 
L 31.296875 70.703125 
L 10.40625 70.703125 
L 10.40625 77.203125 
L 58.984375 77.203125 
L 58.984375 70.703125 
L 38.484375 70.703125 
L 38.484375 61.28125 
Q 38.484375 49.8125 45.5625 38.03125 
Q 52.640625 26.265625 62.5 19.671875 
z
" id="MalgunGothic-51088"/>
     </defs>
     <use xlink:href="#MalgunGothic-44033"/>
     <use x="100" xlink:href="#MalgunGothic-32"/>
     <use x="135.15625" xlink:href="#MalgunGothic-44396"/>
     <use x="235.15625" xlink:href="#MalgunGothic-51032"/>
     <use x="335.15625" xlink:href="#MalgunGothic-32"/>
     <use x="370.3125" xlink:href="#MalgunGothic-51064"/>
     <use x="470.3125" xlink:href="#MalgunGothic-44396"/>
     <use x="570.3125" xlink:href="#MalgunGothic-49688"/>
     <use x="670.3125" xlink:href="#MalgunGothic-32"/>
     <use x="705.46875" xlink:href="#MalgunGothic-45824"/>
     <use x="805.46875" xlink:href="#MalgunGothic-48708"/>
     <use x="905.46875" xlink:href="#MalgunGothic-32"/>
     <use x="940.625" xlink:href="#MalgunGothic-44256"/>
     <use x="1040.625" xlink:href="#MalgunGothic-47161"/>
     <use x="1140.625" xlink:href="#MalgunGothic-51088"/>
     <use x="1240.625" xlink:href="#MalgunGothic-32"/>
     <use x="1275.78125" xlink:href="#MalgunGothic-48708"/>
     <use x="1375.78125" xlink:href="#MalgunGothic-50984"/>
    </g>
   </g>
  </g>
 </g>
 <defs>
  <clipPath id="pe82cb46b95">
   <rect height="321.218182" width="1116" x="180" y="112.32"/>
  </clipPath>
  <clipPath id="pa4172f91ad">
   <rect height="321.218182" width="1116" x="180" y="497.781818"/>
  </clipPath>
 </defs>
</svg>
